<svg xmlns="http://www.w3.org/2000/svg" xmlns:xlink="http://www.w3.org/1999/xlink" viewBox="0 0 2880 2048"><defs><style>.cls-1{fill:none;}.cls-2{clip-path:url(#clip-path);}.cls-3{fill:#90d0b7;}.cls-4{clip-path:url(#clip-path-2);}</style><clipPath id="clip-path"><rect class="cls-1" x="-4627.29" y="393.49" width="10847.57" height="2958.71"/></clipPath><clipPath id="clip-path-2"><rect class="cls-1" x="-1314.17" y="-1359.26" width="10847.57" height="2958.71"/></clipPath></defs><title>Artboard 1-100</title><g id="sodo"><g class="cls-2"><path class="cls-3" d="M-36.62,2715.05V1061.68h347q249.5,0,394.07,49.26Q859.65,1159.13,986,1274.78,1242,1508.23,1242,1888.37q0,381.23-266.64,616.8Q841.45,2623,694.76,2669q-137.09,46.06-388.72,46Zm249.51-234.52H325.32q168.1,0,279.49-35.34,111.36-37.47,201.32-118.87,184.17-168.1,184.18-438,0-272-182-441.19-163.84-151-482.95-151H212.88Z"/><path class="cls-3" d="M1473.26,1880.87q0-349.08,255.93-599.67,254.84-250.58,612.52-250.58,353.38,0,606.09,252.72,253.79,252.73,253.79,607.17,0,356.59-254.86,605Q2690.78,2745.05,2328.86,2745q-320.2,0-575-221.67Q1473.25,2278.17,1473.26,1880.87Zm251.65,3.21q0,274.14,184.18,450.82,183.11,176.69,423,176.69,260.21,0,439-179.9,178.82-182,178.83-443.33,0-264.48-176.69-443.33-175.64-179.9-434.76-179.9-258.08,0-435.83,179.9Q1724.9,1622.81,1724.91,1884.08Z"/></g></g><g id="sodo-2" data-name="sodo"><g class="cls-4"><path class="cls-3" d="M973.13-444.78,770.74-324.84Q714-423.35,662.59-453.35,609-487.6,524.45-487.61q-103.88,0-172.4,58.9-68.54,57.83-68.53,145.63,0,121,179.9,194.89L628.32-20.73Q829.63,60.67,922.8,177.91T1016,465.43q0,228.09-152.06,376.93Q710.76,992.3,483.76,992.29q-215.24,0-355.52-127.43Q-9.9,737.44-44.16,506.13l252.72-55.68q17.12,145.64,60,201.32,77.1,107.09,224.88,107.08,116.71,0,193.82-78.17t77.1-198.1q0-48.19-13.39-88.34a224.57,224.57,0,0,0-41.76-73.89q-28.39-33.73-73.35-63.18T528.73,200.94L369.18,134.54Q29.71-8.94,29.72-285.22q0-186.33,142.42-311.61Q314.55-723.18,526.59-723.2,812.51-723.2,973.13-444.78Z"/><path class="cls-3" d="M1234.42,128.12q0-349.08,255.93-599.67,254.84-250.58,612.52-250.58,353.38,0,606.09,252.72,253.79,252.73,253.79,607.16,0,356.59-254.86,605Q2451.94,992.3,2090,992.29q-320.2,0-575-221.66Q1234.41,525.42,1234.42,128.12Zm251.65,3.21q0,274.14,184.19,450.82,183.11,176.69,423,176.69,260.21,0,439-179.9,178.82-182,178.83-443.33,0-264.48-176.69-443.33-175.64-179.9-434.76-179.9-258.08,0-435.83,179.9Q1486.05-129.94,1486.06,131.33Z"/></g></g></svg>