<?xml version="1.0" encoding="UTF-8" standalone="no"?>
<svg
   xmlns:dc="http://purl.org/dc/elements/1.1/"
   xmlns:cc="http://creativecommons.org/ns#"
   xmlns:rdf="http://www.w3.org/1999/02/22-rdf-syntax-ns#"
   xmlns:svg="http://www.w3.org/2000/svg"
   xmlns="http://www.w3.org/2000/svg"
   viewBox="0 0 1180 360"
   height="360"
   width="1180"
   xml:space="preserve"
   id="svg2"
   version="1.1"><metadata
     id="metadata8"><rdf:RDF><cc:Work
         rdf:about=""><dc:format>image/svg+xml</dc:format><dc:type
           rdf:resource="http://purl.org/dc/dcmitype/StillImage" /></cc:Work></rdf:RDF></metadata><defs
     id="defs6"><clipPath
       id="clipPath18"
       clipPathUnits="userSpaceOnUse"><path
         id="path16"
         d="M 0,270 H 885 V 0 H 0 Z" /></clipPath></defs><g
     transform="matrix(1.3333333,0,0,-1.3333333,0,360)"
     id="g10"><g
       id="g12"><g
         clip-path="url(#clipPath18)"
         id="g14"><g
           transform="translate(27.9263,207.1006)"
           id="g20"><path
             id="path22"
             style="fill:#231f20;fill-opacity:1;fill-rule:nonzero;stroke:none"
             d="M 0,0 1.896,2.376 C 2.976,1.248 4.464,0.624 6.145,0.624 8.041,0.624 9.121,1.704 9.121,3 9.121,4.416 8.064,5.376 6.24,5.376 4.92,5.376 3.84,4.992 2.88,4.08 L 0.504,4.704 v 9.193 H 11.497 V 10.896 H 3.912 V 6.984 c 0.768,0.769 2.065,1.344 3.528,1.344 2.713,0 5.137,-1.943 5.137,-5.183 C 12.577,-0.264 10.033,-2.4 6.168,-2.4 3.384,-2.4 1.368,-1.488 0,0" /></g><g
           transform="translate(51.9268,212.9814)"
           id="g24"><path
             id="path26"
             style="fill:#231f20;fill-opacity:1;fill-rule:nonzero;stroke:none"
             d="m 0,0 c 0,2.952 -0.864,5.232 -3.145,5.232 -2.304,0 -3.167,-2.28 -3.167,-5.232 0,-2.953 0.863,-5.257 3.167,-5.257 C -0.864,-5.257 0,-2.953 0,0 m -9.769,0 c 0,4.128 2.04,8.256 6.624,8.256 4.561,0 6.625,-4.128 6.625,-8.256 0,-4.129 -2.064,-8.281 -6.625,-8.281 -4.584,0 -6.624,4.152 -6.624,8.281" /></g><g
           transform="translate(70.5742,217.5898)"
           id="g28"><path
             id="path30"
             style="fill:#231f20;fill-opacity:1;fill-rule:nonzero;stroke:none"
             d="M 0,0 -2.496,-6.889 H 2.497 Z M 4.417,-12.602 3.433,-9.89 h -6.865 l -1.008,-2.712 h -3.889 l 6.193,16.01 h 4.272 l 6.169,-16.01 z" /></g><g
           transform="translate(80.2935,204.9883)"
           id="g32"><path
             id="path34"
             style="fill:#231f20;fill-opacity:1;fill-rule:nonzero;stroke:none"
             d="m 0,0 v 11.593 h 3.048 v -1.584 c 0.816,1.032 2.256,1.872 3.697,1.872 V 8.904 C 6.528,8.953 6.24,8.977 5.904,8.977 4.896,8.977 3.552,8.4 3.048,7.656 V 0 Z" /></g><g
           transform="translate(89.5332,207.8682)"
           id="g36"><path
             id="path38"
             style="fill:#231f20;fill-opacity:1;fill-rule:nonzero;stroke:none"
             d="M 0,0 V 6.049 H -1.92 V 8.713 H 0 v 3.169 H 3.072 V 8.713 H 5.424 V 6.049 H 3.072 V 0.816 c 0,-0.719 0.384,-1.272 1.056,-1.272 0.456,0 0.888,0.168 1.057,0.336 L 5.833,-2.424 C 5.376,-2.832 4.56,-3.168 3.288,-3.168 1.152,-3.168 0,-2.063 0,0" /></g><path
           id="path40"
           style="fill:#231f20;fill-opacity:1;fill-rule:nonzero;stroke:none"
           d="m 97.045,216.581 h 3.048 v -11.593 h -3.048 z m -0.312,3.072 c 0,1.009 0.84,1.801 1.824,1.801 1.008,0 1.824,-0.792 1.824,-1.801 0,-1.007 -0.816,-1.824 -1.824,-1.824 -0.984,0 -1.824,0.817 -1.824,1.824" /><g
           transform="translate(102.1084,206.5)"
           id="g42"><path
             id="path44"
             style="fill:#231f20;fill-opacity:1;fill-rule:nonzero;stroke:none"
             d="M 0,0 1.32,2.137 C 2.16,1.345 3.889,0.553 5.329,0.553 c 1.32,0 1.944,0.527 1.944,1.248 0,1.92 -6.889,0.359 -6.889,4.92 0,1.944 1.704,3.648 4.753,3.648 1.968,0 3.528,-0.672 4.68,-1.584 L 8.593,6.697 C 7.897,7.441 6.577,8.041 5.161,8.041 4.057,8.041 3.336,7.537 3.336,6.889 3.336,5.161 10.201,6.601 10.201,1.921 10.201,-0.191 8.401,-1.8 5.185,-1.8 3.168,-1.8 1.224,-1.128 0,0" /></g><g
           transform="translate(115.1646,207.8682)"
           id="g46"><path
             id="path48"
             style="fill:#231f20;fill-opacity:1;fill-rule:nonzero;stroke:none"
             d="M 0,0 V 6.049 H -1.92 V 8.713 H 0 v 3.169 H 3.072 V 8.713 H 5.424 V 6.049 H 3.072 V 0.816 c 0,-0.719 0.384,-1.272 1.056,-1.272 0.456,0 0.888,0.168 1.056,0.336 L 5.833,-2.424 C 5.376,-2.832 4.56,-3.168 3.288,-3.168 1.152,-3.168 0,-2.063 0,0" /></g><g
           transform="translate(121.668,206.5)"
           id="g50"><path
             id="path52"
             style="fill:#231f20;fill-opacity:1;fill-rule:nonzero;stroke:none"
             d="M 0,0 1.32,2.137 C 2.16,1.345 3.889,0.553 5.329,0.553 c 1.32,0 1.944,0.527 1.944,1.248 0,1.92 -6.889,0.359 -6.889,4.92 0,1.944 1.704,3.648 4.753,3.648 1.968,0 3.528,-0.672 4.68,-1.584 L 8.593,6.697 C 7.897,7.441 6.577,8.041 5.161,8.041 4.057,8.041 3.336,7.537 3.336,6.889 3.336,5.161 10.201,6.601 10.201,1.921 10.201,-0.191 8.401,-1.8 5.185,-1.8 3.168,-1.8 1.224,-1.128 0,0" /></g><g
           transform="translate(151.5239,207.2686)"
           id="g54"><path
             id="path56"
             style="fill:#231f20;fill-opacity:1;fill-rule:nonzero;stroke:none"
             d="M 0,0 1.776,2.28 C 2.88,1.128 4.632,0.456 6.192,0.456 c 1.945,0 3.025,0.84 3.025,2.04 C 9.217,3.769 8.233,4.345 6,4.345 5.329,4.345 4.249,4.32 4.008,4.296 V 7.368 C 4.296,7.345 5.4,7.345 6,7.345 c 1.777,0 2.953,0.528 2.953,1.704 0,1.272 -1.296,1.896 -2.976,1.896 -1.537,0 -2.929,-0.576 -4.057,-1.656 l -1.704,2.136 c 1.296,1.464 3.312,2.544 6.12,2.544 3.745,0 6.049,-1.68 6.049,-4.344 0,-2.017 -1.728,-3.337 -3.504,-3.648 1.632,-0.168 3.744,-1.441 3.744,-3.841 0,-2.76 -2.472,-4.704 -6.313,-4.704 C 3.36,-2.568 1.176,-1.44 0,0" /></g><g
           transform="translate(166.2598,204.9883)"
           id="g58"><path
             id="path60"
             style="fill:#231f20;fill-opacity:1;fill-rule:nonzero;stroke:none"
             d="m 0,0 v 2.664 c 6.553,4.849 8.473,6.505 8.473,8.473 0,1.392 -1.272,2.089 -2.592,2.089 -1.824,0 -3.216,-0.721 -4.297,-1.849 l -1.944,2.256 c 1.56,1.801 3.937,2.616 6.169,2.616 3.408,0 6.12,-1.92 6.12,-5.112 C 11.929,8.4 9.673,6.024 5.521,3 h 6.528 V 0 Z" /></g><g
           transform="translate(197.125,209.7891)"
           id="g62"><path
             id="path64"
             style="fill:#231f20;fill-opacity:1;fill-rule:nonzero;stroke:none"
             d="m 0,0 c 0,1.008 -0.72,1.872 -2.064,1.872 h -4.393 v -3.721 h 4.393 C -0.768,-1.849 0,-1.152 0,0 m -0.312,6.528 c 0,1.008 -0.72,1.752 -1.873,1.752 H -6.457 V 4.8 h 4.272 c 1.153,0 1.873,0.721 1.873,1.728 M -9.865,-4.801 v 16.01 h 8.425 c 3.048,0 4.608,-1.944 4.608,-4.081 0,-2.016 -1.248,-3.36 -2.76,-3.672 1.704,-0.264 3.072,-1.92 3.072,-3.936 0,-2.401 -1.608,-4.321 -4.656,-4.321 z" /></g><g
           transform="translate(210.9248,204.9883)"
           id="g66"><path
             id="path68"
             style="fill:#231f20;fill-opacity:1;fill-rule:nonzero;stroke:none"
             d="m 0,0 v 1.464 c -0.792,-0.888 -2.184,-1.752 -4.081,-1.752 -2.544,0 -3.744,1.392 -3.744,3.648 v 8.233 h 3.049 V 4.561 c 0,-1.609 0.839,-2.137 2.136,-2.137 1.176,0 2.112,0.648 2.64,1.32 v 7.849 H 3.048 L 3.048,0 Z" /></g><path
           id="path70"
           style="fill:#231f20;fill-opacity:1;fill-rule:nonzero;stroke:none"
           d="m 216.996,216.581 h 3.048 v -11.593 h -3.048 z m -0.312,3.072 c 0,1.009 0.84,1.801 1.824,1.801 1.008,0 1.825,-0.792 1.825,-1.801 0,-1.007 -0.817,-1.824 -1.825,-1.824 -0.984,0 -1.824,0.817 -1.824,1.824" /><path
           id="path72"
           style="fill:#231f20;fill-opacity:1;fill-rule:nonzero;stroke:none"
           d="m 223.068,220.998 h 3.048 v -16.01 h -3.048 z" /><g
           transform="translate(237.1084,208.7324)"
           id="g74"><path
             id="path76"
             style="fill:#231f20;fill-opacity:1;fill-rule:nonzero;stroke:none"
             d="m 0,0 v 4.104 c -0.504,0.769 -1.608,1.321 -2.64,1.321 -1.729,0 -2.929,-1.368 -2.929,-3.385 0,-1.992 1.2,-3.36 2.929,-3.36 1.032,0 2.136,0.552 2.64,1.32 m 0,-3.744 v 1.488 c -0.912,-1.152 -2.185,-1.776 -3.577,-1.776 -2.928,0 -5.136,2.208 -5.136,6.072 0,3.793 2.184,6.097 5.136,6.097 1.369,0 2.665,-0.6 3.577,-1.777 v 5.906 h 3.072 v -16.01 z" /></g><path
           id="path78"
           style="fill:#231f20;fill-opacity:1;fill-rule:nonzero;stroke:none"
           d="m 243.204,216.581 h 3.048 v -11.593 h -3.048 z m -0.312,3.072 c 0,1.009 0.839,1.801 1.824,1.801 1.008,0 1.824,-0.792 1.824,-1.801 0,-1.007 -0.816,-1.824 -1.824,-1.824 -0.985,0 -1.824,0.817 -1.824,1.824" /><g
           transform="translate(257.1001,204.9883)"
           id="g80"><path
             id="path82"
             style="fill:#231f20;fill-opacity:1;fill-rule:nonzero;stroke:none"
             d="m 0,0 v 7.009 c 0,1.608 -0.84,2.16 -2.136,2.16 -1.2,0 -2.136,-0.672 -2.64,-1.368 V 0 h -3.049 v 11.593 h 3.049 v -1.512 c 0.744,0.888 2.16,1.8 4.056,1.8 2.544,0 3.768,-1.441 3.768,-3.696 V 0 Z" /></g><g
           transform="translate(271.1162,209.0928)"
           id="g84"><path
             id="path86"
             style="fill:#231f20;fill-opacity:1;fill-rule:nonzero;stroke:none"
             d="m 0,0 v 3.744 c -0.504,0.769 -1.608,1.32 -2.616,1.32 -1.729,0 -2.929,-1.2 -2.929,-3.192 0,-1.992 1.2,-3.192 2.929,-3.192 1.008,0 2.112,0.576 2.616,1.32 m -8.185,-7.081 1.368,2.209 c 0.936,-1.032 2.16,-1.44 3.625,-1.44 1.463,0 3.192,0.647 3.192,2.927 v 1.177 c -0.912,-1.152 -2.16,-1.824 -3.577,-1.824 -2.904,0 -5.112,2.04 -5.112,5.904 0,3.792 2.184,5.904 5.112,5.904 C -2.185,7.776 -0.937,7.177 0,6 V 7.488 H 3.072 V -3.313 c 0,-4.416 -3.408,-5.496 -6.264,-5.496 -1.993,0 -3.529,0.456 -4.993,1.728" /></g><g
           transform="translate(276.2031,206.5)"
           id="g88"><path
             id="path90"
             style="fill:#231f20;fill-opacity:1;fill-rule:nonzero;stroke:none"
             d="M 0,0 1.32,2.137 C 2.16,1.345 3.889,0.553 5.329,0.553 c 1.32,0 1.944,0.527 1.944,1.248 0,1.92 -6.889,0.359 -6.889,4.92 0,1.944 1.704,3.648 4.753,3.648 1.968,0 3.528,-0.672 4.68,-1.584 L 8.593,6.697 C 7.897,7.441 6.577,8.041 5.161,8.041 4.057,8.041 3.336,7.537 3.336,6.889 3.336,5.161 10.201,6.601 10.201,1.921 10.201,-0.191 8.401,-1.8 5.185,-1.8 3.168,-1.8 1.224,-1.128 0,0" /></g><g
           transform="translate(306.0591,207.2686)"
           id="g92"><path
             id="path94"
             style="fill:#231f20;fill-opacity:1;fill-rule:nonzero;stroke:none"
             d="M 0,0 1.776,2.28 C 2.88,1.128 4.632,0.456 6.192,0.456 c 1.945,0 3.025,0.84 3.025,2.04 C 9.217,3.769 8.233,4.345 6,4.345 5.329,4.345 4.249,4.32 4.008,4.296 V 7.368 C 4.296,7.345 5.4,7.345 6,7.345 c 1.777,0 2.953,0.528 2.953,1.704 0,1.272 -1.296,1.896 -2.976,1.896 -1.537,0 -2.929,-0.576 -4.057,-1.656 l -1.704,2.136 c 1.296,1.464 3.312,2.544 6.12,2.544 3.745,0 6.049,-1.68 6.049,-4.344 0,-2.017 -1.728,-3.337 -3.504,-3.648 1.632,-0.168 3.744,-1.441 3.744,-3.841 0,-2.76 -2.472,-4.704 -6.313,-4.704 C 3.36,-2.568 1.176,-1.44 0,0" /></g><g
           transform="translate(326.3149,207.2441)"
           id="g96"><path
             id="path98"
             style="fill:#231f20;fill-opacity:1;fill-rule:nonzero;stroke:none"
             d="m 0,0 1.848,2.593 c 1.129,-1.177 2.881,-2.16 5.089,-2.16 1.872,0 2.784,0.864 2.784,1.776 0,2.832 -9.217,0.888 -9.217,6.912 0,2.664 2.305,4.872 6.073,4.872 2.544,0 4.656,-0.767 6.24,-2.231 L 10.921,9.266 c -1.296,1.199 -3.024,1.752 -4.656,1.752 -1.464,0 -2.281,-0.649 -2.281,-1.609 0,-2.544 9.193,-0.84 9.193,-6.816 0,-2.929 -2.088,-5.137 -6.408,-5.137 C 3.696,-2.544 1.488,-1.512 0,0" /></g><g
           transform="translate(349.5479,204.9883)"
           id="g100"><path
             id="path102"
             style="fill:#231f20;fill-opacity:1;fill-rule:nonzero;stroke:none"
             d="m 0,0 v 1.464 c -0.792,-0.888 -2.184,-1.752 -4.081,-1.752 -2.544,0 -3.744,1.392 -3.744,3.648 v 8.233 h 3.049 V 4.561 c 0,-1.609 0.839,-2.137 2.136,-2.137 1.176,0 2.112,0.648 2.64,1.32 v 7.849 H 3.048 L 3.048,0 Z" /></g><g
           transform="translate(369.9961,204.9883)"
           id="g104"><path
             id="path106"
             style="fill:#231f20;fill-opacity:1;fill-rule:nonzero;stroke:none"
             d="m 0,0 v 7.32 c 0,1.08 -0.48,1.849 -1.729,1.849 -1.08,0 -1.967,-0.72 -2.399,-1.345 V 0 H -7.2 v 7.32 c 0,1.08 -0.481,1.849 -1.729,1.849 -1.055,0 -1.944,-0.72 -2.399,-1.368 V 0 h -3.049 v 11.593 h 3.049 v -1.512 c 0.479,0.696 2.015,1.8 3.791,1.8 1.705,0 2.785,-0.792 3.217,-2.112 0.672,1.056 2.209,2.112 3.984,2.112 2.137,0 3.408,-1.128 3.408,-3.504 L 3.072,0 Z" /></g><g
           transform="translate(390.4443,204.9883)"
           id="g108"><path
             id="path110"
             style="fill:#231f20;fill-opacity:1;fill-rule:nonzero;stroke:none"
             d="m 0,0 v 7.32 c 0,1.08 -0.48,1.849 -1.729,1.849 -1.08,0 -1.967,-0.72 -2.4,-1.345 V 0 h -3.072 v 7.32 c 0,1.08 -0.48,1.849 -1.728,1.849 -1.056,0 -1.944,-0.72 -2.4,-1.368 V 0 h -3.049 v 11.593 h 3.049 v -1.512 c 0.48,0.696 2.016,1.8 3.792,1.8 1.704,0 2.784,-0.792 3.217,-2.112 0.672,1.056 2.208,2.112 3.984,2.112 2.136,0 3.408,-1.128 3.408,-3.504 L 3.072,0 Z" /></g><g
           transform="translate(401.7705,214.4453)"
           id="g112"><path
             id="path114"
             style="fill:#231f20;fill-opacity:1;fill-rule:nonzero;stroke:none"
             d="M 0,0 C -1.896,0 -2.712,-1.416 -2.856,-2.568 H 2.856 C 2.784,-1.464 2.017,0 0,0 m -6.001,-3.648 c 0,3.36 2.473,6.072 6.001,6.072 3.456,0 5.809,-2.592 5.809,-6.385 v -0.672 h -8.618 c 0.193,-1.464 1.369,-2.688 3.337,-2.688 0.984,0 2.352,0.432 3.096,1.152 L 4.969,-8.137 C 3.816,-9.193 1.992,-9.745 0.192,-9.745 c -3.528,0 -6.193,2.376 -6.193,6.097" /></g><g
           transform="translate(409.7852,204.9883)"
           id="g116"><path
             id="path118"
             style="fill:#231f20;fill-opacity:1;fill-rule:nonzero;stroke:none"
             d="m 0,0 v 11.593 h 3.049 v -1.584 c 0.816,1.032 2.256,1.872 3.696,1.872 V 8.904 C 6.529,8.953 6.241,8.977 5.905,8.977 4.896,8.977 3.553,8.4 3.049,7.656 V 0 Z" /></g><g
           transform="translate(417.417,206.5)"
           id="g120"><path
             id="path122"
             style="fill:#231f20;fill-opacity:1;fill-rule:nonzero;stroke:none"
             d="M 0,0 1.32,2.137 C 2.16,1.345 3.889,0.553 5.328,0.553 c 1.32,0 1.944,0.527 1.944,1.248 0,1.92 -6.888,0.359 -6.888,4.92 0,1.944 1.704,3.648 4.753,3.648 1.967,0 3.528,-0.672 4.68,-1.584 L 8.593,6.697 C 7.896,7.441 6.577,8.041 5.16,8.041 4.057,8.041 3.337,7.537 3.337,6.889 3.337,5.161 10.201,6.601 10.201,1.921 10.201,-0.191 8.4,-1.8 5.185,-1.8 3.168,-1.8 1.225,-1.128 0,0" /></g><g
           transform="translate(447.9199,204.9883)"
           id="g124"><path
             id="path126"
             style="fill:#231f20;fill-opacity:1;fill-rule:nonzero;stroke:none"
             d="m 0,0 v 2.664 c 6.553,4.849 8.473,6.505 8.473,8.473 0,1.392 -1.272,2.089 -2.592,2.089 -1.824,0 -3.217,-0.721 -4.297,-1.849 l -1.943,2.256 c 1.559,1.801 3.935,2.616 6.168,2.616 3.408,0 6.121,-1.92 6.121,-5.112 C 11.93,8.4 9.673,6.024 5.521,3 h 6.528 V 0 Z" /></g><g
           transform="translate(482.8398,204.9883)"
           id="g128"><path
             id="path130"
             style="fill:#231f20;fill-opacity:1;fill-rule:nonzero;stroke:none"
             d="M 0,0 V 11.209 L -4.512,0 H -6 l -4.513,11.209 V 0 h -3.408 v 16.01 h 4.776 l 3.889,-9.673 3.889,9.673 h 4.8 L 3.433,0 Z" /></g><path
           id="path132"
           style="fill:#231f20;fill-opacity:1;fill-rule:nonzero;stroke:none"
           d="m 489.366,216.581 h 3.049 v -11.593 h -3.049 z m -0.311,3.072 c 0,1.009 0.84,1.801 1.824,1.801 1.008,0 1.824,-0.792 1.824,-1.801 0,-1.007 -0.816,-1.824 -1.824,-1.824 -0.984,0 -1.824,0.817 -1.824,1.824" /><path
           id="path134"
           style="fill:#231f20;fill-opacity:1;fill-rule:nonzero;stroke:none"
           d="m 495.437,220.998 h 3.049 v -16.01 h -3.049 z" /><g
           transform="translate(506.7666,214.4453)"
           id="g136"><path
             id="path138"
             style="fill:#231f20;fill-opacity:1;fill-rule:nonzero;stroke:none"
             d="M 0,0 C -1.896,0 -2.712,-1.416 -2.856,-2.568 H 2.856 C 2.784,-1.464 2.017,0 0,0 m -6.001,-3.648 c 0,3.36 2.473,6.072 6.001,6.072 3.456,0 5.809,-2.592 5.809,-6.385 v -0.672 h -8.618 c 0.193,-1.464 1.369,-2.688 3.337,-2.688 0.984,0 2.352,0.432 3.096,1.152 L 4.969,-8.137 C 3.816,-9.193 1.992,-9.745 0.192,-9.745 c -3.528,0 -6.193,2.376 -6.193,6.097" /></g><g
           transform="translate(513.7734,206.5)"
           id="g140"><path
             id="path142"
             style="fill:#231f20;fill-opacity:1;fill-rule:nonzero;stroke:none"
             d="M 0,0 1.32,2.137 C 2.16,1.345 3.889,0.553 5.328,0.553 c 1.32,0 1.944,0.527 1.944,1.248 0,1.92 -6.888,0.359 -6.888,4.92 0,1.944 1.704,3.648 4.753,3.648 1.967,0 3.528,-0.672 4.68,-1.584 L 8.593,6.697 C 7.896,7.441 6.577,8.041 5.16,8.041 4.057,8.041 3.336,7.537 3.336,6.889 3.336,5.161 10.201,6.601 10.201,1.921 10.201,-0.191 8.4,-1.8 5.185,-1.8 3.168,-1.8 1.225,-1.128 0,0" /></g><g
           transform="translate(548.0195,204.9883)"
           id="g144"><path
             id="path146"
             style="fill:#231f20;fill-opacity:1;fill-rule:nonzero;stroke:none"
             d="M 0,0 V 11.617 L -2.664,8.904 -4.608,10.945 0.433,16.01 H 3.408 V 0 Z" /></g><g
           transform="translate(560.7393,204.9883)"
           id="g148"><path
             id="path150"
             style="fill:#231f20;fill-opacity:1;fill-rule:nonzero;stroke:none"
             d="M 0,0 V 16.01 H 11.329 V 13.009 H 3.408 V 9.625 h 7.753 v -3 H 3.408 V 3 h 7.921 V 0 Z" /></g><g
           transform="translate(583.252,210.7969)"
           id="g152"><path
             id="path154"
             style="fill:#231f20;fill-opacity:1;fill-rule:nonzero;stroke:none"
             d="m 0,0 c 0,1.992 -1.176,3.36 -2.928,3.36 -0.984,0 -2.112,-0.576 -2.616,-1.32 v -4.104 c 0.504,-0.72 1.632,-1.321 2.616,-1.321 C -1.176,-3.385 0,-2.017 0,0 m -5.544,-4.32 v -5.905 H -8.593 V 5.784 h 3.049 V 4.32 c 0.888,1.128 2.16,1.752 3.576,1.752 2.977,0 5.137,-2.208 5.137,-6.072 0,-3.864 -2.16,-6.097 -5.137,-6.097 -1.368,0 -2.64,0.576 -3.576,1.777" /></g><path
           id="path156"
           style="fill:#231f20;fill-opacity:1;fill-rule:nonzero;stroke:none"
           d="m 588.651,216.581 h 3.049 v -11.593 h -3.049 z m -0.311,3.072 c 0,1.009 0.84,1.801 1.824,1.801 1.008,0 1.824,-0.792 1.824,-1.801 0,-1.007 -0.816,-1.824 -1.824,-1.824 -0.984,0 -1.824,0.817 -1.824,1.824" /><g
           transform="translate(593.9785,210.7969)"
           id="g158"><path
             id="path160"
             style="fill:#231f20;fill-opacity:1;fill-rule:nonzero;stroke:none"
             d="m 0,0 c 0,3.552 2.568,6.072 6.145,6.072 2.376,0 3.816,-1.032 4.584,-2.088 L 8.737,2.112 C 8.186,2.928 7.345,3.36 6.289,3.36 4.44,3.36 3.145,2.016 3.145,0 c 0,-2.017 1.295,-3.385 3.144,-3.385 1.056,0 1.897,0.481 2.448,1.248 l 1.992,-1.847 C 9.961,-5.064 8.521,-6.097 6.145,-6.097 2.568,-6.097 0,-3.576 0,0" /></g><g
           transform="translate(611.834,207.2441)"
           id="g162"><path
             id="path164"
             style="fill:#231f20;fill-opacity:1;fill-rule:nonzero;stroke:none"
             d="m 0,0 1.849,2.593 c 1.128,-1.177 2.88,-2.16 5.088,-2.16 1.872,0 2.784,0.864 2.784,1.776 0,2.832 -9.217,0.888 -9.217,6.912 0,2.664 2.305,4.872 6.073,4.872 2.544,0 4.656,-0.767 6.24,-2.231 L 10.921,9.266 c -1.296,1.199 -3.025,1.752 -4.656,1.752 -1.464,0 -2.281,-0.649 -2.281,-1.609 0,-2.544 9.194,-0.84 9.194,-6.816 0,-2.929 -2.089,-5.137 -6.409,-5.137 C 3.696,-2.544 1.488,-1.512 0,0" /></g><g
           transform="translate(627.5059,207.8682)"
           id="g166"><path
             id="path168"
             style="fill:#231f20;fill-opacity:1;fill-rule:nonzero;stroke:none"
             d="M 0,0 V 6.049 H -1.92 V 8.713 H 0 v 3.169 H 3.072 V 8.713 H 5.425 V 6.049 H 3.072 V 0.816 c 0,-0.719 0.384,-1.272 1.056,-1.272 0.456,0 0.889,0.168 1.057,0.336 L 5.832,-2.424 C 5.376,-2.832 4.561,-3.168 3.288,-3.168 1.152,-3.168 0,-2.063 0,0" /></g><g
           transform="translate(635.0176,204.9883)"
           id="g170"><path
             id="path172"
             style="fill:#231f20;fill-opacity:1;fill-rule:nonzero;stroke:none"
             d="m 0,0 v 11.593 h 3.049 v -1.584 c 0.816,1.032 2.256,1.872 3.696,1.872 V 8.904 C 6.529,8.953 6.241,8.977 5.905,8.977 4.896,8.977 3.553,8.4 3.049,7.656 V 0 Z" /></g><g
           transform="translate(648.9141,214.4453)"
           id="g174"><path
             id="path176"
             style="fill:#231f20;fill-opacity:1;fill-rule:nonzero;stroke:none"
             d="M 0,0 C -1.896,0 -2.712,-1.416 -2.856,-2.568 H 2.856 C 2.784,-1.464 2.017,0 0,0 m -6,-3.648 c 0,3.36 2.472,6.072 6,6.072 3.456,0 5.809,-2.592 5.809,-6.385 v -0.672 h -8.618 c 0.193,-1.464 1.369,-2.688 3.337,-2.688 0.984,0 2.352,0.432 3.096,1.152 L 4.969,-8.137 C 3.816,-9.193 1.992,-9.745 0.192,-9.745 -3.336,-9.745 -6,-7.369 -6,-3.648" /></g><g
           transform="translate(662.1855,214.4453)"
           id="g178"><path
             id="path180"
             style="fill:#231f20;fill-opacity:1;fill-rule:nonzero;stroke:none"
             d="M 0,0 C -1.896,0 -2.712,-1.416 -2.856,-2.568 H 2.856 C 2.784,-1.464 2.017,0 0,0 m -6,-3.648 c 0,3.36 2.472,6.072 6,6.072 3.456,0 5.809,-2.592 5.809,-6.385 v -0.672 h -8.618 c 0.193,-1.464 1.369,-2.688 3.337,-2.688 0.984,0 2.352,0.432 3.096,1.152 L 4.969,-8.137 C 3.816,-9.193 1.992,-9.745 0.192,-9.745 -3.336,-9.745 -6,-7.369 -6,-3.648" /></g><g
           transform="translate(670.8008,207.8682)"
           id="g182"><path
             id="path184"
             style="fill:#231f20;fill-opacity:1;fill-rule:nonzero;stroke:none"
             d="M 0,0 V 6.049 H -1.92 V 8.713 H 0 v 3.169 H 3.072 V 8.713 H 5.425 V 6.049 H 3.072 V 0.816 c 0,-0.719 0.384,-1.272 1.056,-1.272 0.456,0 0.889,0.168 1.057,0.336 L 5.832,-2.424 C 5.376,-2.832 4.561,-3.168 3.288,-3.168 1.152,-3.168 0,-2.063 0,0" /></g><g
           transform="translate(691.1533,217.5898)"
           id="g186"><path
             id="path188"
             style="fill:#231f20;fill-opacity:1;fill-rule:nonzero;stroke:none"
             d="M 0,0 -2.496,-6.889 H 2.496 Z M 4.416,-12.602 3.432,-9.89 h -6.865 l -1.007,-2.712 h -3.889 l 6.192,16.01 h 4.273 l 6.169,-16.01 z" /></g><g
           transform="translate(700.8721,204.9883)"
           id="g190"><path
             id="path192"
             style="fill:#231f20;fill-opacity:1;fill-rule:nonzero;stroke:none"
             d="m 0,0 v 11.593 h 3.049 v -1.584 c 0.815,1.032 2.256,1.872 3.696,1.872 V 8.904 C 6.529,8.953 6.241,8.977 5.905,8.977 4.896,8.977 3.553,8.4 3.049,7.656 V 0 Z" /></g><g
           transform="translate(710.1123,207.8682)"
           id="g194"><path
             id="path196"
             style="fill:#231f20;fill-opacity:1;fill-rule:nonzero;stroke:none"
             d="M 0,0 V 6.049 H -1.92 V 8.713 H 0 v 3.169 H 3.072 V 8.713 H 5.425 V 6.049 H 3.072 V 0.816 c 0,-0.719 0.384,-1.272 1.056,-1.272 0.456,0 0.889,0.168 1.057,0.336 L 5.832,-2.424 C 5.376,-2.832 4.561,-3.168 3.288,-3.168 1.152,-3.168 0,-2.063 0,0" /></g><g
           transform="translate(723.0723,212.9814)"
           id="g198"><path
             id="path200"
             style="fill:#231f20;fill-opacity:1;fill-rule:nonzero;stroke:none"
             d="m 0,0 c 0,4.92 3.72,8.28 8.521,8.28 3.528,0 5.568,-1.92 6.696,-3.912 L 12.289,2.928 C 11.616,4.224 10.177,5.256 8.521,5.256 5.616,5.256 3.504,3.023 3.504,0 c 0,-3.024 2.112,-5.257 5.017,-5.257 1.656,0 3.095,1.008 3.768,2.328 l 2.928,-1.416 C 14.064,-6.337 12.049,-8.281 8.521,-8.281 3.72,-8.281 0,-4.921 0,0" /></g><g
           transform="translate(748.6094,210.7969)"
           id="g202"><path
             id="path204"
             style="fill:#231f20;fill-opacity:1;fill-rule:nonzero;stroke:none"
             d="M 0,0 C 0,1.8 -1.08,3.36 -2.977,3.36 -4.873,3.36 -5.929,1.8 -5.929,0 c 0,-1.824 1.056,-3.385 2.952,-3.385 C -1.08,-3.385 0,-1.824 0,0 m -9.098,0 c 0,3.288 2.305,6.072 6.121,6.072 3.84,0 6.145,-2.784 6.145,-6.072 0,-3.313 -2.305,-6.097 -6.145,-6.097 -3.816,0 -6.121,2.784 -6.121,6.097" /></g><g
           transform="translate(754.0312,204.9883)"
           id="g206"><path
             id="path208"
             style="fill:#231f20;fill-opacity:1;fill-rule:nonzero;stroke:none"
             d="m 0,0 v 11.593 h 3.049 v -1.584 c 0.816,1.032 2.256,1.872 3.696,1.872 V 8.904 C 6.529,8.953 6.241,8.977 5.905,8.977 4.896,8.977 3.553,8.4 3.049,7.656 V 0 Z" /></g><g
           transform="translate(762.6709,204.9883)"
           id="g210"><path
             id="path212"
             style="fill:#231f20;fill-opacity:1;fill-rule:nonzero;stroke:none"
             d="m 0,0 v 11.593 h 3.049 v -1.584 c 0.815,1.032 2.256,1.872 3.696,1.872 V 8.904 C 6.529,8.953 6.241,8.977 5.905,8.977 4.896,8.977 3.553,8.4 3.049,7.656 V 0 Z" /></g><path
           id="path214"
           style="fill:#231f20;fill-opacity:1;fill-rule:nonzero;stroke:none"
           d="m 771.311,216.581 h 3.049 v -11.593 h -3.049 z m -0.312,3.072 c 0,1.009 0.84,1.801 1.824,1.801 1.008,0 1.824,-0.792 1.824,-1.801 0,-1.007 -0.816,-1.824 -1.824,-1.824 -0.984,0 -1.824,0.817 -1.824,1.824" /><g
           transform="translate(785.3516,208.7324)"
           id="g216"><path
             id="path218"
             style="fill:#231f20;fill-opacity:1;fill-rule:nonzero;stroke:none"
             d="m 0,0 v 4.104 c -0.504,0.769 -1.607,1.321 -2.64,1.321 -1.728,0 -2.928,-1.368 -2.928,-3.385 0,-1.992 1.2,-3.36 2.928,-3.36 1.033,0 2.136,0.552 2.64,1.32 m 0,-3.744 v 1.488 c -0.912,-1.152 -2.184,-1.776 -3.576,-1.776 -2.928,0 -5.137,2.208 -5.137,6.072 0,3.793 2.185,6.097 5.137,6.097 1.368,0 2.664,-0.6 3.576,-1.777 v 5.906 h 3.072 v -16.01 z" /></g><g
           transform="translate(799.8008,210.7969)"
           id="g220"><path
             id="path222"
             style="fill:#231f20;fill-opacity:1;fill-rule:nonzero;stroke:none"
             d="M 0,0 C 0,1.8 -1.08,3.36 -2.977,3.36 -4.873,3.36 -5.929,1.8 -5.929,0 c 0,-1.824 1.056,-3.385 2.952,-3.385 C -1.08,-3.385 0,-1.824 0,0 m -9.098,0 c 0,3.288 2.305,6.072 6.121,6.072 3.84,0 6.145,-2.784 6.145,-6.072 0,-3.313 -2.305,-6.097 -6.145,-6.097 -3.816,0 -6.121,2.784 -6.121,6.097" /></g><g
           transform="translate(805.2227,204.9883)"
           id="g224"><path
             id="path226"
             style="fill:#231f20;fill-opacity:1;fill-rule:nonzero;stroke:none"
             d="m 0,0 v 11.593 h 3.049 v -1.584 c 0.816,1.032 2.256,1.872 3.696,1.872 V 8.904 C 6.529,8.953 6.241,8.977 5.905,8.977 4.896,8.977 3.553,8.4 3.049,7.656 V 0 Z" /></g><g
           transform="translate(140.9116,208.5229)"
           id="g228"><path
             id="path230"
             style="fill:#231f20;fill-opacity:1;fill-rule:nonzero;stroke:none"
             d="m 0,0 c -1.967,0 -3.562,1.595 -3.562,3.562 0,1.967 1.595,3.562 3.562,3.562 1.967,0 3.562,-1.595 3.562,-3.562 C 3.562,1.595 1.967,0 0,0" /></g><g
           transform="translate(295.5781,208.5225)"
           id="g232"><path
             id="path234"
             style="fill:#231f20;fill-opacity:1;fill-rule:nonzero;stroke:none"
             d="m 0,0 c -1.967,0 -3.562,1.595 -3.562,3.562 0,1.967 1.595,3.562 3.562,3.562 1.967,0 3.562,-1.595 3.562,-3.562 C 3.562,1.595 1.967,0 0,0" /></g><g
           transform="translate(436.4121,208.5229)"
           id="g236"><path
             id="path238"
             style="fill:#231f20;fill-opacity:1;fill-rule:nonzero;stroke:none"
             d="m 0,0 c -1.967,0 -3.563,1.595 -3.563,3.562 0,1.967 1.596,3.562 3.563,3.562 1.967,0 3.562,-1.595 3.562,-3.562 C 3.562,1.595 1.967,0 0,0" /></g><g
           transform="translate(532.2451,208.5225)"
           id="g240"><path
             id="path242"
             style="fill:#231f20;fill-opacity:1;fill-rule:nonzero;stroke:none"
             d="m 0,0 c -1.967,0 -3.563,1.595 -3.563,3.562 0,1.967 1.596,3.562 3.563,3.562 1.967,0 3.562,-1.595 3.562,-3.562 C 3.562,1.595 1.967,0 0,0" /></g><g
           transform="translate(21.5005,91.2705)"
           id="g244"><path
             id="path246"
             style="fill:#231f20;fill-opacity:1;fill-rule:nonzero;stroke:none"
             d="m 0,0 1.224,1.32 c 1.056,-1.344 2.448,-2.112 4.417,-2.112 2.184,0 3.696,1.488 3.696,3.433 0,2.111 -1.512,3.456 -3.672,3.456 -1.416,0 -2.617,-0.456 -3.697,-1.513 L 0.504,5.088 v 8.641 h 9.793 v -1.776 h -7.8 V 6.385 c 0.768,0.767 2.135,1.439 3.744,1.439 2.664,0 5.088,-1.824 5.088,-5.112 0,-3.264 -2.472,-5.28 -5.688,-5.28 C 2.928,-2.568 1.2,-1.584 0,0" /></g><g
           transform="translate(45.5015,96.9834)"
           id="g248"><path
             id="path250"
             style="fill:#231f20;fill-opacity:1;fill-rule:nonzero;stroke:none"
             d="m 0,0 c 0,3.191 -1.032,6.48 -4.08,6.48 -3.048,0 -4.081,-3.289 -4.081,-6.48 0,-3.192 1.033,-6.505 4.081,-6.505 C -1.032,-6.505 0,-3.192 0,0 m -10.201,0 c 0,3.912 1.728,8.256 6.121,8.256 4.368,0 6.121,-4.344 6.121,-8.256 0,-3.889 -1.753,-8.281 -6.121,-8.281 -4.393,0 -6.121,4.392 -6.121,8.281" /></g><g
           transform="translate(62.853,102.9355)"
           id="g252"><path
             id="path254"
             style="fill:#231f20;fill-opacity:1;fill-rule:nonzero;stroke:none"
             d="m 0,0 -3.408,-8.617 h 6.792 z m 5.401,-13.945 -1.417,3.552 H -3.984 L -5.4,-13.945 h -2.281 l 6.433,16.009 h 2.472 l 6.457,-16.009 z" /></g><g
           transform="translate(72.5488,88.9902)"
           id="g256"><path
             id="path258"
             style="fill:#231f20;fill-opacity:1;fill-rule:nonzero;stroke:none"
             d="M 0,0 V 11.593 H 1.8 V 9.721 c 0.936,1.224 2.28,2.112 3.865,2.112 V 9.984 C 5.448,10.033 5.232,10.057 4.944,10.057 3.84,10.057 2.328,9.145 1.8,8.209 V 0 Z" /></g><g
           transform="translate(80.8286,91.4141)"
           id="g260"><path
             id="path262"
             style="fill:#231f20;fill-opacity:1;fill-rule:nonzero;stroke:none"
             d="M 0,0 V 7.585 H -1.92 V 9.169 H 0 v 3.169 H 1.8 V 9.169 H 4.152 V 7.585 H 1.8 v -7.2 c 0,-0.864 0.384,-1.489 1.176,-1.489 0.504,0 0.984,0.216 1.224,0.48 L 4.729,-1.968 C 4.272,-2.399 3.625,-2.712 2.568,-2.712 0.864,-2.712 0,-1.728 0,0" /></g><path
           id="path264"
           style="fill:#231f20;fill-opacity:1;fill-rule:nonzero;stroke:none"
           d="m 87.524,100.583 h 1.8 V 88.99 h -1.8 z m -0.312,2.856 c 0,0.672 0.552,1.225 1.201,1.225 0.671,0 1.223,-0.553 1.223,-1.225 0,-0.671 -0.552,-1.2 -1.223,-1.2 -0.649,0 -1.201,0.529 -1.201,1.2" /><g
           transform="translate(91.916,90.5264)"
           id="g266"><path
             id="path268"
             style="fill:#231f20;fill-opacity:1;fill-rule:nonzero;stroke:none"
             d="M 0,0 0.936,1.296 C 1.704,0.408 3.168,-0.36 4.752,-0.36 c 1.777,0 2.737,0.84 2.737,1.992 0,2.808 -7.177,1.08 -7.177,5.377 0,1.8 1.56,3.336 4.32,3.336 1.969,0 3.361,-0.744 4.297,-1.68 L 8.089,7.417 C 7.393,8.257 6.121,8.881 4.632,8.881 3.048,8.881 2.064,8.089 2.064,7.057 2.064,4.513 9.241,6.192 9.241,1.68 9.241,-0.264 7.681,-1.824 4.681,-1.824 2.784,-1.824 1.176,-1.248 0,0" /></g><g
           transform="translate(104.4438,91.4141)"
           id="g270"><path
             id="path272"
             style="fill:#231f20;fill-opacity:1;fill-rule:nonzero;stroke:none"
             d="M 0,0 V 7.585 H -1.92 V 9.169 H 0 v 3.169 H 1.8 V 9.169 H 4.152 V 7.585 H 1.8 v -7.2 c 0,-0.864 0.384,-1.489 1.176,-1.489 0.504,0 0.984,0.216 1.224,0.48 L 4.729,-1.968 C 4.272,-2.399 3.625,-2.712 2.568,-2.712 0.864,-2.712 0,-1.728 0,0" /></g><g
           transform="translate(110.1313,90.5264)"
           id="g274"><path
             id="path276"
             style="fill:#231f20;fill-opacity:1;fill-rule:nonzero;stroke:none"
             d="M 0,0 0.936,1.296 C 1.704,0.408 3.168,-0.36 4.752,-0.36 c 1.777,0 2.737,0.84 2.737,1.992 0,2.808 -7.177,1.08 -7.177,5.377 0,1.8 1.56,3.336 4.32,3.336 1.969,0 3.361,-0.744 4.297,-1.68 L 8.089,7.417 C 7.393,8.257 6.121,8.881 4.632,8.881 3.048,8.881 2.064,8.089 2.064,7.057 2.064,4.513 9.241,6.192 9.241,1.68 9.241,-0.264 7.681,-1.824 4.681,-1.824 2.784,-1.824 1.176,-1.248 0,0" /></g><g
           transform="translate(139.7715,91.3428)"
           id="g278"><path
             id="path280"
             style="fill:#231f20;fill-opacity:1;fill-rule:nonzero;stroke:none"
             d="M 0,0 1.176,1.248 C 2.112,0 3.744,-0.864 5.64,-0.864 c 2.328,0 3.745,1.152 3.745,3 0,1.992 -1.633,2.832 -3.985,2.832 -0.672,0 -1.416,0 -1.656,-0.024 V 6.769 C 4.008,6.744 4.752,6.744 5.4,6.744 c 2.017,0 3.721,0.792 3.721,2.641 0,1.775 -1.633,2.736 -3.577,2.736 -1.752,0 -3.048,-0.673 -4.224,-1.944 l -1.104,1.248 c 1.152,1.391 3,2.471 5.472,2.471 3.073,0 5.425,-1.559 5.425,-4.272 0,-2.304 -1.945,-3.456 -3.457,-3.72 1.465,-0.12 3.697,-1.368 3.697,-3.936 0,-2.664 -2.136,-4.609 -5.665,-4.609 C 2.976,-2.641 0.984,-1.44 0,0" /></g><g
           transform="translate(153.7388,88.9902)"
           id="g282"><path
             id="path284"
             style="fill:#231f20;fill-opacity:1;fill-rule:nonzero;stroke:none"
             d="m 0,0 v 1.584 c 5.761,4.536 8.881,7.201 8.881,9.961 0,2.04 -1.68,2.929 -3.336,2.929 -1.92,0 -3.409,-0.817 -4.345,-2.017 l -1.224,1.272 c 1.224,1.608 3.313,2.52 5.569,2.52 2.664,0 5.376,-1.512 5.376,-4.704 0,-3.265 -3.312,-6.24 -7.776,-9.769 h 7.848 l 0,-1.776 z" /></g><g
           transform="translate(184.4834,93.5264)"
           id="g286"><path
             id="path288"
             style="fill:#231f20;fill-opacity:1;fill-rule:nonzero;stroke:none"
             d="M 0,0 C 0,1.465 -1.008,2.761 -2.976,2.761 H -7.873 V -2.76 h 4.897 C -1.104,-2.76 0,-1.704 0,0 m -0.312,7.104 c 0,1.441 -0.96,2.593 -2.76,2.593 h -4.801 v -5.16 h 4.801 c 1.8,0 2.76,1.104 2.76,2.567 m -9.553,-11.64 v 16.01 h 7.129 c 2.784,0 4.488,-1.681 4.488,-4.081 0,-2.016 -1.344,-3.361 -2.808,-3.672 1.704,-0.264 3.12,-2.017 3.12,-3.937 0,-2.568 -1.704,-4.32 -4.632,-4.32 z" /></g><g
           transform="translate(197.4673,88.9902)"
           id="g290"><path
             id="path292"
             style="fill:#231f20;fill-opacity:1;fill-rule:nonzero;stroke:none"
             d="m 0,0 v 1.632 c -0.888,-1.008 -2.4,-1.92 -4.128,-1.92 -2.425,0 -3.697,1.176 -3.697,3.696 v 8.185 h 1.8 V 3.96 c 0,-2.04 1.032,-2.64 2.592,-2.64 1.417,0 2.761,0.816 3.433,1.752 v 8.521 H 1.8 L 1.8,0 Z" /></g><path
           id="path294"
           style="fill:#231f20;fill-opacity:1;fill-rule:nonzero;stroke:none"
           d="m 202.866,100.583 h 1.8 V 88.99 h -1.8 z m -0.312,2.856 c 0,0.672 0.552,1.225 1.2,1.225 0.672,0 1.224,-0.553 1.224,-1.225 0,-0.671 -0.552,-1.2 -1.224,-1.2 -0.648,0 -1.2,0.529 -1.2,1.2" /><path
           id="path296"
           style="fill:#231f20;fill-opacity:1;fill-rule:nonzero;stroke:none"
           d="m 208.266,105 h 1.8 V 88.99 h -1.8 z" /><g
           transform="translate(222.0664,92.1348)"
           id="g298"><path
             id="path300"
             style="fill:#231f20;fill-opacity:1;fill-rule:nonzero;stroke:none"
             d="m 0,0 v 5.256 c -0.648,1.009 -2.04,1.872 -3.48,1.872 -2.328,0 -3.72,-1.92 -3.72,-4.488 0,-2.569 1.392,-4.464 3.72,-4.464 1.44,0 2.832,0.815 3.48,1.824 m 0,-3.145 v 1.729 c -0.864,-1.177 -2.28,-2.017 -3.912,-2.017 -3.025,0 -5.161,2.305 -5.161,6.073 0,3.696 2.113,6.096 5.161,6.096 1.56,0 2.976,-0.767 3.912,-2.04 v 6.169 h 1.8 v -16.01 z" /></g><path
           id="path302"
           style="fill:#231f20;fill-opacity:1;fill-rule:nonzero;stroke:none"
           d="m 227.466,100.583 h 1.8 V 88.99 h -1.8 z m -0.312,2.856 c 0,0.672 0.552,1.225 1.2,1.225 0.672,0 1.224,-0.553 1.224,-1.225 0,-0.671 -0.552,-1.2 -1.224,-1.2 -0.648,0 -1.2,0.529 -1.2,1.2" /><g
           transform="translate(240.6904,88.9902)"
           id="g304"><path
             id="path306"
             style="fill:#231f20;fill-opacity:1;fill-rule:nonzero;stroke:none"
             d="m 0,0 v 7.585 c 0,2.04 -1.032,2.687 -2.592,2.687 -1.416,0 -2.761,-0.863 -3.433,-1.799 V 0 h -1.8 v 11.593 h 1.8 v -1.68 c 0.817,0.96 2.4,1.968 4.129,1.968 2.424,0 3.696,-1.224 3.696,-3.744 L 1.8,0 Z" /></g><g
           transform="translate(254.4663,92.3262)"
           id="g308"><path
             id="path310"
             style="fill:#231f20;fill-opacity:1;fill-rule:nonzero;stroke:none"
             d="m 0,0 v 5.064 c -0.624,1.009 -2.016,1.873 -3.456,1.873 -2.328,0 -3.72,-1.848 -3.72,-4.416 0,-2.544 1.392,-4.417 3.72,-4.417 1.44,0 2.832,0.888 3.456,1.896 m -8.4,-6.312 0.912,1.344 c 0.96,-1.152 2.112,-1.584 3.768,-1.584 1.92,0 3.72,0.936 3.72,3.48 v 1.656 c -0.84,-1.176 -2.256,-2.063 -3.888,-2.063 -3.025,0 -5.161,2.255 -5.161,6 0,3.72 2.112,6.024 5.161,6.024 1.56,0 2.952,-0.768 3.888,-2.04 V 8.257 H 1.8 V -3 c 0,-3.84 -2.688,-5.04 -5.52,-5.04 -1.968,0 -3.313,0.384 -4.68,1.728" /></g><g
           transform="translate(258.8574,90.5264)"
           id="g312"><path
             id="path314"
             style="fill:#231f20;fill-opacity:1;fill-rule:nonzero;stroke:none"
             d="M 0,0 0.936,1.296 C 1.704,0.408 3.168,-0.36 4.752,-0.36 c 1.777,0 2.737,0.84 2.737,1.992 0,2.808 -7.177,1.08 -7.177,5.377 0,1.8 1.56,3.336 4.32,3.336 1.969,0 3.361,-0.744 4.297,-1.68 L 8.089,7.417 C 7.393,8.257 6.121,8.881 4.632,8.881 3.048,8.881 2.064,8.089 2.064,7.057 2.064,4.513 9.241,6.192 9.241,1.68 9.241,-0.264 7.681,-1.824 4.681,-1.824 2.784,-1.824 1.176,-1.248 0,0" /></g><g
           transform="translate(288.4971,91.3428)"
           id="g316"><path
             id="path318"
             style="fill:#231f20;fill-opacity:1;fill-rule:nonzero;stroke:none"
             d="M 0,0 1.176,1.248 C 2.112,0 3.744,-0.864 5.64,-0.864 c 2.328,0 3.745,1.152 3.745,3 0,1.992 -1.633,2.832 -3.985,2.832 -0.672,0 -1.416,0 -1.656,-0.024 V 6.769 C 4.008,6.744 4.752,6.744 5.4,6.744 c 2.017,0 3.721,0.792 3.721,2.641 0,1.775 -1.633,2.736 -3.577,2.736 -1.752,0 -3.048,-0.673 -4.224,-1.944 l -1.104,1.248 c 1.152,1.391 3,2.471 5.472,2.471 3.073,0 5.425,-1.559 5.425,-4.272 0,-2.304 -1.945,-3.456 -3.457,-3.72 1.465,-0.12 3.697,-1.368 3.697,-3.936 0,-2.664 -2.136,-4.609 -5.665,-4.609 C 2.976,-2.641 0.984,-1.44 0,0" /></g><g
           transform="translate(308.2725,91.2461)"
           id="g320"><path
             id="path322"
             style="fill:#231f20;fill-opacity:1;fill-rule:nonzero;stroke:none"
             d="m 0,0 1.176,1.513 c 1.056,-1.177 2.784,-2.281 5.04,-2.281 2.857,0 3.769,1.537 3.769,2.76 0,4.129 -9.481,1.849 -9.481,7.561 0,2.64 2.352,4.44 5.496,4.44 2.449,0 4.345,-0.815 5.689,-2.231 l -1.2,-1.465 c -1.2,1.32 -2.881,1.921 -4.633,1.921 -1.919,0 -3.288,-1.032 -3.288,-2.545 0,-3.6 9.481,-1.536 9.481,-7.513 0,-2.328 -1.584,-4.704 -5.904,-4.704 C 3.36,-2.544 1.32,-1.488 0,0" /></g><g
           transform="translate(331.0493,88.9902)"
           id="g324"><path
             id="path326"
             style="fill:#231f20;fill-opacity:1;fill-rule:nonzero;stroke:none"
             d="m 0,0 v 1.632 c -0.888,-1.008 -2.4,-1.92 -4.128,-1.92 -2.425,0 -3.697,1.176 -3.697,3.696 v 8.185 h 1.8 V 3.96 c 0,-2.04 1.032,-2.64 2.592,-2.64 1.417,0 2.761,0.816 3.433,1.752 v 8.521 H 1.8 L 1.8,0 Z" /></g><g
           transform="translate(350.4414,88.9902)"
           id="g328"><path
             id="path330"
             style="fill:#231f20;fill-opacity:1;fill-rule:nonzero;stroke:none"
             d="m 0,0 v 7.873 c 0,1.464 -0.648,2.399 -2.136,2.399 -1.2,0 -2.472,-0.863 -3.072,-1.775 V 0 h -1.801 v 7.873 c 0,1.464 -0.624,2.399 -2.136,2.399 -1.176,0 -2.424,-0.863 -3.048,-1.799 V 0 h -1.8 v 11.593 h 1.8 v -1.68 c 0.48,0.744 2.04,1.968 3.744,1.968 1.776,0 2.784,-0.96 3.12,-2.16 0.648,1.056 2.208,2.16 3.889,2.16 2.112,0 3.241,-1.176 3.241,-3.504 L 1.801,0 Z" /></g><g
           transform="translate(369.834,88.9902)"
           id="g332"><path
             id="path334"
             style="fill:#231f20;fill-opacity:1;fill-rule:nonzero;stroke:none"
             d="m 0,0 v 7.873 c 0,1.464 -0.648,2.399 -2.137,2.399 -1.2,0 -2.471,-0.863 -3.072,-1.775 V 0 h -1.8 v 7.873 c 0,1.464 -0.624,2.399 -2.137,2.399 -1.175,0 -2.423,-0.863 -3.047,-1.799 V 0 h -1.8 v 11.593 h 1.8 v -1.68 c 0.48,0.744 2.04,1.968 3.744,1.968 1.776,0 2.784,-0.96 3.12,-2.16 0.648,1.056 2.209,2.16 3.889,2.16 2.112,0 3.24,-1.176 3.24,-3.504 L 1.8,0 Z" /></g><g
           transform="translate(380.249,99.3828)"
           id="g336"><path
             id="path338"
             style="fill:#231f20;fill-opacity:1;fill-rule:nonzero;stroke:none"
             d="M 0,0 C -2.472,0 -3.696,-2.088 -3.792,-3.864 H 3.816 C 3.793,-2.136 2.641,0 0,0 m -5.688,-4.584 c 0,3.36 2.4,6.072 5.712,6.072 3.504,0 5.569,-2.736 5.569,-6.217 v -0.456 h -9.385 c 0.144,-2.183 1.68,-4.007 4.176,-4.007 1.32,0 2.665,0.528 3.577,1.463 l 0.863,-1.175 c -1.151,-1.153 -2.712,-1.777 -4.608,-1.777 -3.432,0 -5.904,2.473 -5.904,6.097" /></g><g
           transform="translate(388.7441,88.9902)"
           id="g340"><path
             id="path342"
             style="fill:#231f20;fill-opacity:1;fill-rule:nonzero;stroke:none"
             d="M 0,0 V 11.593 H 1.801 V 9.721 c 0.935,1.224 2.28,2.112 3.864,2.112 V 9.984 C 5.449,10.033 5.232,10.057 4.944,10.057 3.841,10.057 2.328,9.145 1.801,8.209 V 0 Z" /></g><g
           transform="translate(395.6562,90.5264)"
           id="g344"><path
             id="path346"
             style="fill:#231f20;fill-opacity:1;fill-rule:nonzero;stroke:none"
             d="M 0,0 0.937,1.296 C 1.704,0.408 3.168,-0.36 4.753,-0.36 c 1.775,0 2.735,0.84 2.735,1.992 0,2.808 -7.176,1.08 -7.176,5.377 0,1.8 1.56,3.336 4.321,3.336 1.968,0 3.36,-0.744 4.296,-1.68 L 8.089,7.417 C 7.393,8.257 6.12,8.881 4.633,8.881 3.048,8.881 2.064,8.089 2.064,7.057 2.064,4.513 9.241,6.192 9.241,1.68 9.241,-0.264 7.681,-1.824 4.681,-1.824 2.784,-1.824 1.176,-1.248 0,0" /></g><g
           transform="translate(425.8945,88.9902)"
           id="g348"><path
             id="path350"
             style="fill:#231f20;fill-opacity:1;fill-rule:nonzero;stroke:none"
             d="m 0,0 v 1.584 c 5.761,4.536 8.881,7.201 8.881,9.961 0,2.04 -1.68,2.929 -3.336,2.929 -1.92,0 -3.408,-0.817 -4.345,-2.017 l -1.223,1.272 c 1.223,1.608 3.311,2.52 5.568,2.52 2.664,0 5.376,-1.512 5.376,-4.704 0,-3.265 -3.313,-6.24 -7.776,-9.769 h 7.848 l 0,-1.776 z" /></g><g
           transform="translate(460.457,88.9902)"
           id="g352"><path
             id="path354"
             style="fill:#231f20;fill-opacity:1;fill-rule:nonzero;stroke:none"
             d="M 0,0 V 13.177 L -5.449,0 h -0.816 l -5.424,13.177 V 0 h -1.993 v 16.01 h 2.857 L -5.856,3.96 -0.864,16.01 H 1.992 L 1.992,0 Z" /></g><path
           id="path356"
           style="fill:#231f20;fill-opacity:1;fill-rule:nonzero;stroke:none"
           d="m 466.119,100.583 h 1.801 V 88.99 h -1.801 z m -0.311,2.856 c 0,0.672 0.551,1.225 1.2,1.225 0.672,0 1.223,-0.553 1.223,-1.225 0,-0.671 -0.551,-1.2 -1.223,-1.2 -0.649,0 -1.2,0.529 -1.2,1.2" /><path
           id="path358"
           style="fill:#231f20;fill-opacity:1;fill-rule:nonzero;stroke:none"
           d="m 471.519,105 h 1.801 V 88.99 h -1.801 z" /><g
           transform="translate(481.9346,99.3828)"
           id="g360"><path
             id="path362"
             style="fill:#231f20;fill-opacity:1;fill-rule:nonzero;stroke:none"
             d="M 0,0 C -2.472,0 -3.696,-2.088 -3.792,-3.864 H 3.816 C 3.793,-2.136 2.641,0 0,0 m -5.688,-4.584 c 0,3.36 2.4,6.072 5.712,6.072 3.504,0 5.569,-2.736 5.569,-6.217 v -0.456 h -9.385 c 0.144,-2.183 1.68,-4.007 4.176,-4.007 1.32,0 2.665,0.528 3.577,1.463 l 0.863,-1.175 c -1.151,-1.153 -2.712,-1.777 -4.608,-1.777 -3.432,0 -5.904,2.473 -5.904,6.097" /></g><g
           transform="translate(489.4219,90.5264)"
           id="g364"><path
             id="path366"
             style="fill:#231f20;fill-opacity:1;fill-rule:nonzero;stroke:none"
             d="M 0,0 0.937,1.296 C 1.704,0.408 3.168,-0.36 4.753,-0.36 c 1.775,0 2.735,0.84 2.735,1.992 0,2.808 -7.176,1.08 -7.176,5.377 0,1.8 1.56,3.336 4.321,3.336 1.968,0 3.36,-0.744 4.296,-1.68 L 8.089,7.417 C 7.393,8.257 6.12,8.881 4.633,8.881 3.048,8.881 2.064,8.089 2.064,7.057 2.064,4.513 9.241,6.192 9.241,1.68 9.241,-0.264 7.681,-1.824 4.681,-1.824 2.784,-1.824 1.176,-1.248 0,0" /></g><g
           transform="translate(522.6367,88.9902)"
           id="g368"><path
             id="path370"
             style="fill:#231f20;fill-opacity:1;fill-rule:nonzero;stroke:none"
             d="M 0,0 V 13.369 L -2.568,10.657 -3.769,11.881 0.24,16.01 H 1.992 L 1.992,0 Z" /></g><g
           transform="translate(534.5645,88.9902)"
           id="g372"><path
             id="path374"
             style="fill:#231f20;fill-opacity:1;fill-rule:nonzero;stroke:none"
             d="M 0,0 V 16.01 H 10.489 V 14.233 H 1.992 v -5.16 h 8.329 V 7.297 H 1.992 V 1.776 h 8.497 V 0 Z" /></g><g
           transform="translate(557.125,94.7988)"
           id="g376"><path
             id="path378"
             style="fill:#231f20;fill-opacity:1;fill-rule:nonzero;stroke:none"
             d="m 0,0 c 0,2.568 -1.393,4.464 -3.721,4.464 -1.416,0 -2.832,-0.84 -3.456,-1.848 v -5.232 c 0.624,-1.008 2.04,-1.872 3.456,-1.872 C -1.393,-4.488 0,-2.568 0,0 m -7.177,-4.057 v -6.168 H -8.978 V 5.784 h 1.801 V 4.057 c 0.84,1.175 2.281,2.015 3.912,2.015 3.048,0 5.161,-2.303 5.161,-6.072 0,-3.744 -2.113,-6.097 -5.161,-6.097 -1.584,0 -2.976,0.744 -3.912,2.04" /></g><path
           id="path380"
           style="fill:#231f20;fill-opacity:1;fill-rule:nonzero;stroke:none"
           d="m 561.875,100.583 h 1.801 V 88.99 h -1.801 z m -0.312,2.856 c 0,0.672 0.552,1.225 1.201,1.225 0.672,0 1.223,-0.553 1.223,-1.225 0,-0.671 -0.551,-1.2 -1.223,-1.2 -0.649,0 -1.201,0.529 -1.201,1.2" /><g
           transform="translate(566.6025,94.7988)"
           id="g382"><path
             id="path384"
             style="fill:#231f20;fill-opacity:1;fill-rule:nonzero;stroke:none"
             d="m 0,0 c 0,3.433 2.328,6.072 5.785,6.072 2.111,0 3.36,-0.864 4.248,-2.015 L 8.833,2.952 C 8.064,4.008 7.081,4.464 5.881,4.464 3.408,4.464 1.872,2.568 1.872,0 c 0,-2.568 1.536,-4.488 4.009,-4.488 1.2,0 2.183,0.479 2.952,1.511 l 1.2,-1.103 C 9.145,-5.232 7.896,-6.097 5.785,-6.097 2.328,-6.097 0,-3.456 0,0" /></g><g
           transform="translate(584.458,91.2461)"
           id="g386"><path
             id="path388"
             style="fill:#231f20;fill-opacity:1;fill-rule:nonzero;stroke:none"
             d="m 0,0 1.176,1.513 c 1.056,-1.177 2.784,-2.281 5.041,-2.281 2.855,0 3.767,1.537 3.767,2.76 0,4.129 -9.48,1.849 -9.48,7.561 0,2.64 2.352,4.44 5.496,4.44 2.448,0 4.345,-0.815 5.689,-2.231 l -1.2,-1.465 c -1.2,1.32 -2.881,1.921 -4.633,1.921 -1.919,0 -3.288,-1.032 -3.288,-2.545 0,-3.6 9.481,-1.536 9.481,-7.513 0,-2.328 -1.584,-4.704 -5.904,-4.704 C 3.36,-2.544 1.32,-1.488 0,0" /></g><g
           transform="translate(599.3623,91.4141)"
           id="g390"><path
             id="path392"
             style="fill:#231f20;fill-opacity:1;fill-rule:nonzero;stroke:none"
             d="M 0,0 V 7.585 H -1.92 V 9.169 H 0 v 3.169 H 1.8 V 9.169 H 4.152 V 7.585 H 1.8 v -7.2 c 0,-0.864 0.385,-1.489 1.177,-1.489 0.503,0 0.983,0.216 1.223,0.48 L 4.729,-1.968 C 4.272,-2.399 3.624,-2.712 2.568,-2.712 0.864,-2.712 0,-1.728 0,0" /></g><g
           transform="translate(606.0576,88.9902)"
           id="g394"><path
             id="path396"
             style="fill:#231f20;fill-opacity:1;fill-rule:nonzero;stroke:none"
             d="M 0,0 V 11.593 H 1.801 V 9.721 c 0.935,1.224 2.28,2.112 3.864,2.112 V 9.984 C 5.449,10.033 5.232,10.057 4.944,10.057 3.841,10.057 2.328,9.145 1.801,8.209 V 0 Z" /></g><g
           transform="translate(618.9941,99.3828)"
           id="g398"><path
             id="path400"
             style="fill:#231f20;fill-opacity:1;fill-rule:nonzero;stroke:none"
             d="M 0,0 C -2.472,0 -3.696,-2.088 -3.792,-3.864 H 3.816 C 3.793,-2.136 2.641,0 0,0 m -5.688,-4.584 c 0,3.36 2.4,6.072 5.712,6.072 3.504,0 5.569,-2.736 5.569,-6.217 v -0.456 h -9.385 c 0.144,-2.183 1.68,-4.007 4.176,-4.007 1.32,0 2.665,0.528 3.577,1.463 l 0.863,-1.175 c -1.151,-1.153 -2.712,-1.777 -4.608,-1.777 -3.432,0 -5.904,2.473 -5.904,6.097" /></g><g
           transform="translate(632.5059,99.3828)"
           id="g402"><path
             id="path404"
             style="fill:#231f20;fill-opacity:1;fill-rule:nonzero;stroke:none"
             d="M 0,0 C -2.472,0 -3.696,-2.088 -3.792,-3.864 H 3.816 C 3.793,-2.136 2.641,0 0,0 m -5.688,-4.584 c 0,3.36 2.4,6.072 5.712,6.072 3.504,0 5.569,-2.736 5.569,-6.217 v -0.456 h -9.385 c 0.144,-2.183 1.68,-4.007 4.176,-4.007 1.32,0 2.665,0.528 3.577,1.463 l 0.863,-1.175 c -1.151,-1.153 -2.712,-1.777 -4.608,-1.777 -3.432,0 -5.904,2.473 -5.904,6.097" /></g><g
           transform="translate(641.3613,91.4141)"
           id="g406"><path
             id="path408"
             style="fill:#231f20;fill-opacity:1;fill-rule:nonzero;stroke:none"
             d="M 0,0 V 7.585 H -1.92 V 9.169 H 0 v 3.169 H 1.8 V 9.169 H 4.152 V 7.585 H 1.8 v -7.2 c 0,-0.864 0.385,-1.489 1.177,-1.489 0.503,0 0.983,0.216 1.223,0.48 L 4.729,-1.968 C 4.272,-2.399 3.624,-2.712 2.568,-2.712 0.864,-2.712 0,-1.728 0,0" /></g><g
           transform="translate(660.3447,102.9355)"
           id="g410"><path
             id="path412"
             style="fill:#231f20;fill-opacity:1;fill-rule:nonzero;stroke:none"
             d="m 0,0 -3.408,-8.617 h 6.793 z m 5.4,-13.945 -1.416,3.552 H -3.984 L -5.4,-13.945 h -2.281 l 6.433,16.009 h 2.473 l 6.456,-16.009 z" /></g><g
           transform="translate(670.04,88.9902)"
           id="g414"><path
             id="path416"
             style="fill:#231f20;fill-opacity:1;fill-rule:nonzero;stroke:none"
             d="M 0,0 V 11.593 H 1.801 V 9.721 c 0.935,1.224 2.28,2.112 3.864,2.112 V 9.984 C 5.449,10.033 5.232,10.057 4.944,10.057 3.841,10.057 2.328,9.145 1.801,8.209 V 0 Z" /></g><g
           transform="translate(678.3203,91.4141)"
           id="g418"><path
             id="path420"
             style="fill:#231f20;fill-opacity:1;fill-rule:nonzero;stroke:none"
             d="M 0,0 V 7.585 H -1.92 V 9.169 H 0 v 3.169 H 1.8 V 9.169 H 4.152 V 7.585 H 1.8 v -7.2 c 0,-0.864 0.385,-1.489 1.177,-1.489 0.503,0 0.983,0.216 1.223,0.48 L 4.729,-1.968 C 4.272,-2.399 3.624,-2.712 2.568,-2.712 0.864,-2.712 0,-1.728 0,0" /></g><g
           transform="translate(690.6309,96.9834)"
           id="g422"><path
             id="path424"
             style="fill:#231f20;fill-opacity:1;fill-rule:nonzero;stroke:none"
             d="m 0,0 c 0,4.92 3.625,8.28 8.233,8.28 2.832,0 4.8,-1.368 6.073,-3.168 L 12.626,4.176 C 11.714,5.52 10.058,6.504 8.233,6.504 4.729,6.504 2.064,3.815 2.064,0 c 0,-3.793 2.665,-6.505 6.169,-6.505 1.825,0 3.481,0.96 4.393,2.328 L 14.33,-5.113 C 12.985,-6.937 11.065,-8.281 8.233,-8.281 3.625,-8.281 0,-4.921 0,0" /></g><g
           transform="translate(716.3359,94.7988)"
           id="g426"><path
             id="path428"
             style="fill:#231f20;fill-opacity:1;fill-rule:nonzero;stroke:none"
             d="m 0,0 c 0,2.353 -1.368,4.464 -3.841,4.464 -2.471,0 -3.864,-2.111 -3.864,-4.464 0,-2.376 1.393,-4.488 3.864,-4.488 C -1.368,-4.488 0,-2.376 0,0 m -9.577,0 c 0,3.36 2.208,6.072 5.736,6.072 3.529,0 5.737,-2.712 5.737,-6.072 0,-3.36 -2.208,-6.097 -5.737,-6.097 -3.528,0 -5.736,2.737 -5.736,6.097" /></g><g
           transform="translate(721.1582,88.9902)"
           id="g430"><path
             id="path432"
             style="fill:#231f20;fill-opacity:1;fill-rule:nonzero;stroke:none"
             d="M 0,0 V 11.593 H 1.801 V 9.721 c 0.935,1.224 2.28,2.112 3.864,2.112 V 9.984 C 5.449,10.033 5.232,10.057 4.944,10.057 3.841,10.057 2.328,9.145 1.801,8.209 V 0 Z" /></g><g
           transform="translate(729.0781,88.9902)"
           id="g434"><path
             id="path436"
             style="fill:#231f20;fill-opacity:1;fill-rule:nonzero;stroke:none"
             d="M 0,0 V 11.593 H 1.801 V 9.721 c 0.935,1.224 2.28,2.112 3.864,2.112 V 9.984 C 5.449,10.033 5.232,10.057 4.944,10.057 3.841,10.057 2.328,9.145 1.801,8.209 V 0 Z" /></g><path
           id="path438"
           style="fill:#231f20;fill-opacity:1;fill-rule:nonzero;stroke:none"
           d="m 736.998,100.583 h 1.801 V 88.99 h -1.801 z m -0.311,2.856 c 0,0.672 0.551,1.225 1.2,1.225 0.672,0 1.223,-0.553 1.223,-1.225 0,-0.671 -0.551,-1.2 -1.223,-1.2 -0.649,0 -1.2,0.529 -1.2,1.2" /><g
           transform="translate(750.7988,92.1348)"
           id="g440"><path
             id="path442"
             style="fill:#231f20;fill-opacity:1;fill-rule:nonzero;stroke:none"
             d="m 0,0 v 5.256 c -0.648,1.009 -2.04,1.872 -3.48,1.872 -2.329,0 -3.721,-1.92 -3.721,-4.488 0,-2.569 1.392,-4.464 3.721,-4.464 1.44,0 2.832,0.815 3.48,1.824 m 0,-3.145 v 1.729 c -0.864,-1.177 -2.28,-2.017 -3.913,-2.017 -3.024,0 -5.16,2.305 -5.16,6.073 0,3.696 2.112,6.096 5.16,6.096 1.56,0 2.976,-0.767 3.913,-2.04 v 6.169 h 1.8 v -16.01 z" /></g><g
           transform="translate(765.1025,94.7988)"
           id="g444"><path
             id="path446"
             style="fill:#231f20;fill-opacity:1;fill-rule:nonzero;stroke:none"
             d="m 0,0 c 0,2.353 -1.368,4.464 -3.841,4.464 -2.471,0 -3.864,-2.111 -3.864,-4.464 0,-2.376 1.393,-4.488 3.864,-4.488 C -1.368,-4.488 0,-2.376 0,0 m -9.577,0 c 0,3.36 2.208,6.072 5.736,6.072 3.529,0 5.737,-2.712 5.737,-6.072 0,-3.36 -2.208,-6.097 -5.737,-6.097 -3.528,0 -5.736,2.737 -5.736,6.097" /></g><g
           transform="translate(769.9248,88.9902)"
           id="g448"><path
             id="path450"
             style="fill:#231f20;fill-opacity:1;fill-rule:nonzero;stroke:none"
             d="M 0,0 V 11.593 H 1.801 V 9.721 c 0.935,1.224 2.28,2.112 3.864,2.112 V 9.984 C 5.449,10.033 5.232,10.057 4.944,10.057 3.841,10.057 2.328,9.145 1.801,8.209 V 0 Z" /></g><g
           transform="translate(130.0781,92.5249)"
           id="g452"><path
             id="path454"
             style="fill:#231f20;fill-opacity:1;fill-rule:nonzero;stroke:none"
             d="m 0,0 c -1.967,0 -3.562,1.595 -3.562,3.562 0,1.967 1.595,3.562 3.562,3.562 1.967,0 3.562,-1.595 3.562,-3.562 C 3.562,1.595 1.967,0 0,0" /></g><g
           transform="translate(278.7451,92.5244)"
           id="g456"><path
             id="path458"
             style="fill:#231f20;fill-opacity:1;fill-rule:nonzero;stroke:none"
             d="m 0,0 c -1.967,0 -3.562,1.595 -3.562,3.562 0,1.967 1.595,3.562 3.562,3.562 1.967,0 3.562,-1.595 3.562,-3.562 C 3.562,1.595 1.967,0 0,0" /></g><g
           transform="translate(415.5781,92.5249)"
           id="g460"><path
             id="path462"
             style="fill:#231f20;fill-opacity:1;fill-rule:nonzero;stroke:none"
             d="m 0,0 c -1.967,0 -3.562,1.595 -3.562,3.562 0,1.967 1.595,3.562 3.562,3.562 1.967,0 3.563,-1.595 3.563,-3.562 C 3.563,1.595 1.967,0 0,0" /></g><g
           transform="translate(510.4121,92.5244)"
           id="g464"><path
             id="path466"
             style="fill:#231f20;fill-opacity:1;fill-rule:nonzero;stroke:none"
             d="m 0,0 c -1.967,0 -3.563,1.595 -3.563,3.562 0,1.967 1.596,3.562 3.563,3.562 1.967,0 3.562,-1.595 3.562,-3.562 C 3.562,1.595 1.967,0 0,0" /></g><g
           transform="translate(21.2607,152.1729)"
           id="g468"><path
             id="path470"
             style="fill:#231f20;fill-opacity:1;fill-rule:nonzero;stroke:none"
             d="m 0,0 1.608,1.92 c 1.08,-1.225 2.52,-1.897 4.32,-1.897 2.016,0 3.289,1.248 3.289,2.809 C 9.217,4.56 7.969,5.688 6,5.688 4.632,5.688 3.504,5.256 2.496,4.296 L 0.504,4.872 v 8.953 H 10.993 V 11.353 H 3.312 V 6.72 C 4.08,7.488 5.4,8.112 6.937,8.112 c 2.688,0 5.112,-1.896 5.112,-5.16 0,-3.337 -2.52,-5.425 -6.096,-5.425 C 3.192,-2.473 1.296,-1.536 0,0" /></g><g
           transform="translate(45.2612,157.9814)"
           id="g472"><path
             id="path474"
             style="fill:#231f20;fill-opacity:1;fill-rule:nonzero;stroke:none"
             d="m 0,0 c 0,3.048 -0.936,5.76 -3.552,5.76 -2.616,0 -3.552,-2.712 -3.552,-5.76 0,-3.049 0.936,-5.785 3.552,-5.785 C -0.936,-5.785 0,-3.049 0,0 m -9.961,0 c 0,4.032 1.92,8.256 6.409,8.256 4.488,0 6.408,-4.224 6.408,-8.256 0,-4.033 -1.92,-8.281 -6.408,-8.281 -4.489,0 -6.409,4.248 -6.409,8.281" /></g><g
           transform="translate(63.3325,163.165)"
           id="g476"><path
             id="path478"
             style="fill:#231f20;fill-opacity:1;fill-rule:nonzero;stroke:none"
             d="m 0,0 -2.88,-7.632 h 5.76 z m 4.849,-13.177 -1.177,3.073 h -7.344 l -1.176,-3.073 h -3.193 l 6.289,16.01 h 3.504 l 6.289,-16.01 z" /></g><g
           transform="translate(73.0522,149.9883)"
           id="g480"><path
             id="path482"
             style="fill:#231f20;fill-opacity:1;fill-rule:nonzero;stroke:none"
             d="M 0,0 V 11.593 H 2.52 V 9.889 c 0.864,1.104 2.256,1.968 3.769,1.968 V 9.36 C 6.072,9.409 5.808,9.433 5.496,9.433 4.44,9.433 3.024,8.713 2.52,7.896 V 0 Z" /></g><g
           transform="translate(81.8838,152.6768)"
           id="g484"><path
             id="path486"
             style="fill:#231f20;fill-opacity:1;fill-rule:nonzero;stroke:none"
             d="M 0,0 V 6.696 H -1.92 V 8.904 H 0 v 3.169 H 2.52 V 8.904 H 4.873 V 6.696 H 2.52 V 0.624 c 0,-0.792 0.384,-1.368 1.105,-1.368 0.479,0 0.936,0.191 1.127,0.408 L 5.353,-2.232 C 4.896,-2.664 4.152,-2.977 2.976,-2.977 1.032,-2.977 0,-1.921 0,0" /></g><path
           id="path488"
           style="fill:#231f20;fill-opacity:1;fill-rule:nonzero;stroke:none"
           d="m 89.036,161.581 h 2.52 v -11.593 h -2.52 z m -0.312,2.977 c 0,0.864 0.719,1.559 1.56,1.559 0.863,0 1.56,-0.695 1.56,-1.559 0,-0.865 -0.697,-1.561 -1.56,-1.561 -0.841,0 -1.56,0.696 -1.56,1.561" /><g
           transform="translate(93.811,151.5)"
           id="g490"><path
             id="path492"
             style="fill:#231f20;fill-opacity:1;fill-rule:nonzero;stroke:none"
             d="m 0,0 1.152,1.824 c 0.816,-0.84 2.424,-1.632 3.936,-1.632 1.513,0 2.281,0.649 2.281,1.561 0,2.28 -7.009,0.647 -7.009,5.088 0,1.896 1.632,3.528 4.56,3.528 1.969,0 3.457,-0.696 4.513,-1.632 L 8.377,6.961 C 7.681,7.753 6.385,8.354 4.944,8.354 3.625,8.354 2.784,7.753 2.784,6.937 2.784,4.873 9.793,6.409 9.793,1.801 9.793,-0.239 8.089,-1.8 4.968,-1.8 3,-1.8 1.2,-1.176 0,0" /></g><g
           transform="translate(106.6509,152.6768)"
           id="g494"><path
             id="path496"
             style="fill:#231f20;fill-opacity:1;fill-rule:nonzero;stroke:none"
             d="M 0,0 V 6.696 H -1.92 V 8.904 H 0 v 3.169 H 2.52 V 8.904 H 4.873 V 6.696 H 2.52 V 0.624 c 0,-0.792 0.384,-1.368 1.104,-1.368 0.48,0 0.937,0.191 1.128,0.408 L 5.353,-2.232 C 4.896,-2.664 4.152,-2.977 2.976,-2.977 1.032,-2.977 0,-1.921 0,0" /></g><g
           transform="translate(112.7944,151.5)"
           id="g498"><path
             id="path500"
             style="fill:#231f20;fill-opacity:1;fill-rule:nonzero;stroke:none"
             d="m 0,0 1.152,1.824 c 0.816,-0.84 2.424,-1.632 3.936,-1.632 1.513,0 2.281,0.649 2.281,1.561 0,2.28 -7.009,0.647 -7.009,5.088 0,1.896 1.632,3.528 4.56,3.528 1.969,0 3.457,-0.696 4.513,-1.632 L 8.377,6.961 C 7.681,7.753 6.385,8.354 4.944,8.354 3.625,8.354 2.784,7.753 2.784,6.937 2.784,4.873 9.793,6.409 9.793,1.801 9.793,-0.239 8.089,-1.8 4.968,-1.8 3,-1.8 1.2,-1.176 0,0" /></g><g
           transform="translate(142.5776,152.293)"
           id="g502"><path
             id="path504"
             style="fill:#231f20;fill-opacity:1;fill-rule:nonzero;stroke:none"
             d="m 0,0 1.512,1.848 c 1.032,-1.201 2.736,-1.945 4.44,-1.945 2.112,0 3.337,0.96 3.337,2.449 0,1.584 -1.272,2.255 -3.553,2.255 -0.672,0 -1.608,0 -1.848,-0.023 v 2.52 C 4.176,7.08 5.112,7.08 5.736,7.08 c 1.872,0 3.288,0.649 3.288,2.112 0,1.489 -1.44,2.256 -3.24,2.256 -1.632,0 -2.976,-0.624 -4.128,-1.776 l -1.44,1.753 c 1.224,1.439 3.168,2.519 5.832,2.519 3.457,0 5.785,-1.631 5.785,-4.32 0,-2.136 -1.824,-3.384 -3.48,-3.672 1.56,-0.144 3.72,-1.416 3.72,-3.889 0,-2.711 -2.328,-4.656 -6.025,-4.656 C 3.192,-2.593 1.08,-1.44 0,0" /></g><g
           transform="translate(156.9775,149.9883)"
           id="g506"><path
             id="path508"
             style="fill:#231f20;fill-opacity:1;fill-rule:nonzero;stroke:none"
             d="m 0,0 v 2.208 c 6.216,4.704 8.641,6.793 8.641,9.097 0,1.68 -1.44,2.448 -2.905,2.448 -1.872,0 -3.312,-0.768 -4.32,-1.92 l -1.632,1.849 c 1.416,1.704 3.672,2.567 5.904,2.567 3.097,0 5.809,-1.752 5.809,-4.944 0,-2.952 -2.712,-5.592 -7.009,-8.832 h 7.105 V 0 Z" /></g><g
           transform="translate(187.7939,154.6924)"
           id="g510"><path
             id="path512"
             style="fill:#231f20;fill-opacity:1;fill-rule:nonzero;stroke:none"
             d="m 0,0 c 0,1.2 -0.84,2.208 -2.448,2.208 h -4.609 v -4.439 h 4.609 C -0.912,-2.231 0,-1.392 0,0 m -0.312,6.745 c 0,1.2 -0.816,2.088 -2.256,2.088 H -7.057 V 4.681 h 4.489 c 1.44,0 2.256,0.864 2.256,2.064 M -9.865,-4.704 v 16.01 h 7.873 c 2.928,0 4.56,-1.825 4.56,-4.081 0,-2.016 -1.296,-3.361 -2.784,-3.672 1.704,-0.264 3.096,-1.969 3.096,-3.937 0,-2.471 -1.656,-4.32 -4.656,-4.32 z" /></g><g
           transform="translate(201.2339,149.9883)"
           id="g514"><path
             id="path516"
             style="fill:#231f20;fill-opacity:1;fill-rule:nonzero;stroke:none"
             d="M 0,0 V 1.536 C -0.84,0.6 -2.28,-0.288 -4.104,-0.288 c -2.497,0 -3.721,1.296 -3.721,3.673 v 8.208 h 2.52 V 4.296 c 0,-1.8 0.912,-2.352 2.328,-2.352 1.272,0 2.377,0.72 2.977,1.512 v 8.137 H 2.52 V 0 Z" /></g><path
           id="path518"
           style="fill:#231f20;fill-opacity:1;fill-rule:nonzero;stroke:none"
           d="m 207.017,161.581 h 2.52 v -11.593 h -2.52 z m -0.312,2.977 c 0,0.864 0.719,1.559 1.56,1.559 0.863,0 1.56,-0.695 1.56,-1.559 0,-0.865 -0.697,-1.561 -1.56,-1.561 -0.841,0 -1.56,0.696 -1.56,1.561" /><path
           id="path520"
           style="fill:#231f20;fill-opacity:1;fill-rule:nonzero;stroke:none"
           d="m 212.801,165.998 h 2.52 v -16.01 h -2.52 z" /><g
           transform="translate(226.7456,153.4687)"
           id="g522"><path
             id="path524"
             style="fill:#231f20;fill-opacity:1;fill-rule:nonzero;stroke:none"
             d="m 0,0 v 4.608 c -0.576,0.865 -1.8,1.56 -3,1.56 -1.993,0 -3.265,-1.607 -3.265,-3.864 0,-2.232 1.272,-3.84 3.265,-3.84 1.2,0 2.424,0.672 3,1.536 m 0,-3.48 v 1.584 c -0.888,-1.153 -2.232,-1.873 -3.72,-1.873 -2.977,0 -5.161,2.256 -5.161,6.073 0,3.745 2.16,6.096 5.161,6.096 1.44,0 2.784,-0.671 3.72,-1.896 v 6.025 H 2.52 V -3.48 Z" /></g><path
           id="path526"
           style="fill:#231f20;fill-opacity:1;fill-rule:nonzero;stroke:none"
           d="m 232.529,161.581 h 2.52 v -11.593 h -2.52 z m -0.312,2.977 c 0,0.864 0.72,1.559 1.56,1.559 0.864,0 1.56,-0.695 1.56,-1.559 0,-0.865 -0.696,-1.561 -1.56,-1.561 -0.84,0 -1.56,0.696 -1.56,1.561" /><g
           transform="translate(246.1372,149.9883)"
           id="g528"><path
             id="path530"
             style="fill:#231f20;fill-opacity:1;fill-rule:nonzero;stroke:none"
             d="m 0,0 v 7.249 c 0,1.8 -0.912,2.399 -2.329,2.399 -1.296,0 -2.4,-0.767 -2.976,-1.559 V 0 h -2.52 v 11.593 h 2.52 v -1.584 c 0.768,0.912 2.257,1.872 4.081,1.872 2.496,0 3.744,-1.344 3.744,-3.72 L 2.52,0 Z" /></g><g
           transform="translate(260.0566,153.7568)"
           id="g532"><path
             id="path534"
             style="fill:#231f20;fill-opacity:1;fill-rule:nonzero;stroke:none"
             d="m 0,0 v 4.32 c -0.552,0.865 -1.8,1.56 -2.977,1.56 -1.992,0 -3.264,-1.487 -3.264,-3.72 0,-2.232 1.272,-3.721 3.264,-3.721 1.177,0 2.425,0.697 2.977,1.561 m -8.281,-6.745 1.176,1.824 c 0.936,-1.08 2.136,-1.488 3.672,-1.488 1.657,0 3.433,0.768 3.433,3.144 v 1.393 c -0.888,-1.152 -2.208,-1.921 -3.721,-1.921 -2.952,0 -5.136,2.137 -5.136,5.953 0,3.744 2.16,5.952 5.136,5.952 1.465,0 2.785,-0.672 3.721,-1.896 V 7.824 H 2.52 V -3.169 c 0,-4.176 -3.096,-5.304 -5.953,-5.304 -1.968,0 -3.432,0.432 -4.848,1.728" /></g><g
           transform="translate(264.8315,151.5)"
           id="g536"><path
             id="path538"
             style="fill:#231f20;fill-opacity:1;fill-rule:nonzero;stroke:none"
             d="m 0,0 1.152,1.824 c 0.816,-0.84 2.424,-1.632 3.936,-1.632 1.513,0 2.281,0.649 2.281,1.561 0,2.28 -7.009,0.647 -7.009,5.088 0,1.896 1.632,3.528 4.56,3.528 1.969,0 3.457,-0.696 4.513,-1.632 L 8.377,6.961 C 7.681,7.753 6.385,8.354 4.944,8.354 3.625,8.354 2.784,7.753 2.784,6.937 2.784,4.873 9.793,6.409 9.793,1.801 9.793,-0.239 8.089,-1.8 4.968,-1.8 3,-1.8 1.2,-1.176 0,0" /></g><g
           transform="translate(294.6147,152.293)"
           id="g540"><path
             id="path542"
             style="fill:#231f20;fill-opacity:1;fill-rule:nonzero;stroke:none"
             d="m 0,0 1.512,1.848 c 1.032,-1.201 2.736,-1.945 4.44,-1.945 2.112,0 3.337,0.96 3.337,2.449 0,1.584 -1.272,2.255 -3.553,2.255 -0.672,0 -1.608,0 -1.848,-0.023 v 2.52 C 4.176,7.08 5.112,7.08 5.736,7.08 c 1.872,0 3.288,0.649 3.288,2.112 0,1.489 -1.44,2.256 -3.24,2.256 -1.632,0 -2.976,-0.624 -4.128,-1.776 l -1.44,1.753 c 1.224,1.439 3.168,2.519 5.832,2.519 3.457,0 5.785,-1.631 5.785,-4.32 0,-2.136 -1.824,-3.384 -3.48,-3.672 1.56,-0.144 3.72,-1.416 3.72,-3.889 0,-2.711 -2.328,-4.656 -6.025,-4.656 C 3.192,-2.593 1.08,-1.44 0,0" /></g><g
           transform="translate(314.6538,152.2441)"
           id="g544"><path
             id="path546"
             style="fill:#231f20;fill-opacity:1;fill-rule:nonzero;stroke:none"
             d="m 0,0 1.561,2.16 c 1.104,-1.176 2.832,-2.208 5.064,-2.208 2.304,0 3.216,1.128 3.216,2.185 0,3.36 -9.337,1.271 -9.337,7.176 0,2.64 2.329,4.68 5.833,4.68 2.496,0 4.512,-0.792 6,-2.231 L 10.729,9.673 c -1.248,1.248 -2.952,1.824 -4.632,1.824 -1.657,0 -2.713,-0.792 -2.713,-1.992 0,-2.976 9.313,-1.128 9.313,-7.105 0,-2.664 -1.872,-4.944 -6.192,-4.944 C 3.553,-2.544 1.417,-1.512 0,0" /></g><g
           transform="translate(337.6948,149.9883)"
           id="g548"><path
             id="path550"
             style="fill:#231f20;fill-opacity:1;fill-rule:nonzero;stroke:none"
             d="M 0,0 V 1.536 C -0.84,0.6 -2.28,-0.288 -4.104,-0.288 c -2.497,0 -3.721,1.296 -3.721,3.673 v 8.208 h 2.52 V 4.296 c 0,-1.8 0.912,-2.352 2.328,-2.352 1.272,0 2.377,0.72 2.977,1.512 v 8.137 H 2.52 V 0 Z" /></g><g
           transform="translate(357.6865,149.9883)"
           id="g552"><path
             id="path554"
             style="fill:#231f20;fill-opacity:1;fill-rule:nonzero;stroke:none"
             d="m 0,0 v 7.561 c 0,1.248 -0.552,2.087 -1.896,2.087 -1.128,0 -2.184,-0.792 -2.688,-1.536 V 0 h -2.52 v 7.561 c 0,1.248 -0.553,2.087 -1.921,2.087 -1.104,0 -2.136,-0.792 -2.664,-1.559 V 0 h -2.52 v 11.593 h 2.52 v -1.584 c 0.48,0.72 2.016,1.872 3.769,1.872 1.728,0 2.784,-0.864 3.168,-2.136 0.672,1.056 2.208,2.136 3.937,2.136 2.135,0 3.336,-1.152 3.336,-3.504 L 2.521,0 Z" /></g><g
           transform="translate(377.6787,149.9883)"
           id="g556"><path
             id="path558"
             style="fill:#231f20;fill-opacity:1;fill-rule:nonzero;stroke:none"
             d="m 0,0 v 7.561 c 0,1.248 -0.552,2.087 -1.896,2.087 -1.128,0 -2.184,-0.792 -2.689,-1.536 V 0 h -2.519 v 7.561 c 0,1.248 -0.553,2.087 -1.921,2.087 -1.104,0 -2.136,-0.792 -2.664,-1.559 V 0 h -2.52 v 11.593 h 2.52 v -1.584 c 0.48,0.72 2.016,1.872 3.768,1.872 1.729,0 2.784,-0.864 3.168,-2.136 0.673,1.056 2.209,2.136 3.937,2.136 2.136,0 3.337,-1.152 3.337,-3.504 V 0 Z" /></g><g
           transform="translate(388.6221,159.8047)"
           id="g560"><path
             id="path562"
             style="fill:#231f20;fill-opacity:1;fill-rule:nonzero;stroke:none"
             d="M 0,0 C -2.16,0 -3.145,-1.655 -3.265,-3.072 H 3.264 C 3.216,-1.704 2.28,0 0,0 m -5.881,-4.008 c 0,3.361 2.448,6.072 5.881,6.072 3.479,0 5.712,-2.664 5.712,-6.312 v -0.6 H -3.24 c 0.191,-1.753 1.511,-3.192 3.696,-3.192 1.128,0 2.472,0.456 3.288,1.271 l 1.152,-1.655 c -1.152,-1.104 -2.856,-1.68 -4.705,-1.68 -3.48,0 -6.072,2.423 -6.072,6.096" /></g><g
           transform="translate(396.8291,149.9883)"
           id="g564"><path
             id="path566"
             style="fill:#231f20;fill-opacity:1;fill-rule:nonzero;stroke:none"
             d="M 0,0 V 11.593 H 2.521 V 9.889 c 0.864,1.104 2.255,1.968 3.768,1.968 V 9.36 C 6.073,9.409 5.809,9.433 5.497,9.433 4.44,9.433 3.024,8.713 2.521,7.896 V 0 Z" /></g><g
           transform="translate(404.1484,151.5)"
           id="g568"><path
             id="path570"
             style="fill:#231f20;fill-opacity:1;fill-rule:nonzero;stroke:none"
             d="m 0,0 1.152,1.824 c 0.816,-0.84 2.424,-1.632 3.937,-1.632 1.512,0 2.28,0.649 2.28,1.561 0,2.28 -7.009,0.647 -7.009,5.088 0,1.896 1.632,3.528 4.561,3.528 1.968,0 3.456,-0.696 4.512,-1.632 L 8.377,6.961 C 7.681,7.753 6.385,8.354 4.944,8.354 3.624,8.354 2.784,7.753 2.784,6.937 2.784,4.873 9.793,6.409 9.793,1.801 9.793,-0.239 8.089,-1.8 4.969,-1.8 3,-1.8 1.2,-1.176 0,0" /></g><g
           transform="translate(434.5566,149.9883)"
           id="g572"><path
             id="path574"
             style="fill:#231f20;fill-opacity:1;fill-rule:nonzero;stroke:none"
             d="m 0,0 v 2.208 c 6.217,4.704 8.641,6.793 8.641,9.097 0,1.68 -1.441,2.448 -2.905,2.448 -1.872,0 -3.312,-0.768 -4.32,-1.92 l -1.632,1.849 c 1.416,1.704 3.672,2.567 5.904,2.567 3.096,0 5.809,-1.752 5.809,-4.944 0,-2.952 -2.713,-5.592 -7.009,-8.832 h 7.105 V 0 Z" /></g><g
           transform="translate(469.333,149.9883)"
           id="g576"><path
             id="path578"
             style="fill:#231f20;fill-opacity:1;fill-rule:nonzero;stroke:none"
             d="M 0,0 V 11.881 L -4.92,0 h -1.2 l -4.897,11.881 V 0 h -2.808 v 16.01 h 3.96 L -5.521,5.473 -1.152,16.01 H 2.809 L 2.809,0 Z" /></g><path
           id="path580"
           style="fill:#231f20;fill-opacity:1;fill-rule:nonzero;stroke:none"
           d="m 475.476,161.581 h 2.521 v -11.593 h -2.521 z m -0.312,2.977 c 0,0.864 0.72,1.559 1.56,1.559 0.864,0 1.56,-0.695 1.56,-1.559 0,-0.865 -0.696,-1.561 -1.56,-1.561 -0.84,0 -1.56,0.696 -1.56,1.561" /><path
           id="path582"
           style="fill:#231f20;fill-opacity:1;fill-rule:nonzero;stroke:none"
           d="m 481.26,165.998 h 2.521 v -16.01 h -2.521 z" /><g
           transform="translate(492.2051,159.8047)"
           id="g584"><path
             id="path586"
             style="fill:#231f20;fill-opacity:1;fill-rule:nonzero;stroke:none"
             d="M 0,0 C -2.16,0 -3.145,-1.655 -3.265,-3.072 H 3.264 C 3.216,-1.704 2.28,0 0,0 m -5.881,-4.008 c 0,3.361 2.448,6.072 5.881,6.072 3.479,0 5.712,-2.664 5.712,-6.312 v -0.6 H -3.24 c 0.191,-1.753 1.511,-3.192 3.696,-3.192 1.128,0 2.472,0.456 3.288,1.271 l 1.152,-1.655 c -1.152,-1.104 -2.856,-1.68 -4.705,-1.68 -3.48,0 -6.072,2.423 -6.072,6.096" /></g><g
           transform="translate(499.4043,151.5)"
           id="g588"><path
             id="path590"
             style="fill:#231f20;fill-opacity:1;fill-rule:nonzero;stroke:none"
             d="m 0,0 1.152,1.824 c 0.816,-0.84 2.424,-1.632 3.937,-1.632 1.512,0 2.28,0.649 2.28,1.561 0,2.28 -7.009,0.647 -7.009,5.088 0,1.896 1.632,3.528 4.561,3.528 1.968,0 3.456,-0.696 4.512,-1.632 L 8.377,6.961 C 7.681,7.753 6.385,8.354 4.944,8.354 3.624,8.354 2.784,7.753 2.784,6.937 2.784,4.873 9.793,6.409 9.793,1.801 9.793,-0.239 8.089,-1.8 4.969,-1.8 3,-1.8 1.2,-1.176 0,0" /></g><g
           transform="translate(533.2207,149.9883)"
           id="g592"><path
             id="path594"
             style="fill:#231f20;fill-opacity:1;fill-rule:nonzero;stroke:none"
             d="M 0,0 V 12.361 L -2.616,9.648 -4.248,11.353 0.36,16.01 H 2.809 L 2.809,0 Z" /></g><g
           transform="translate(545.6045,149.9883)"
           id="g596"><path
             id="path598"
             style="fill:#231f20;fill-opacity:1;fill-rule:nonzero;stroke:none"
             d="M 0,0 V 16.01 H 10.969 V 13.537 H 2.809 V 9.385 h 7.992 V 6.912 H 2.809 V 2.473 h 8.16 l 0,-2.473 z" /></g><g
           transform="translate(568.1406,155.7969)"
           id="g600"><path
             id="path602"
             style="fill:#231f20;fill-opacity:1;fill-rule:nonzero;stroke:none"
             d="M 0,0 C 0,2.232 -1.271,3.84 -3.264,3.84 -4.44,3.84 -5.688,3.145 -6.24,2.28 v -4.585 c 0.552,-0.84 1.8,-1.559 2.976,-1.559 C -1.271,-3.864 0,-2.256 0,0 m -6.24,-4.2 v -6.025 H -8.761 V 5.784 H -6.24 V 4.2 c 0.864,1.153 2.208,1.872 3.72,1.872 3,0 5.136,-2.256 5.136,-6.072 0,-3.816 -2.136,-6.097 -5.136,-6.097 -1.464,0 -2.784,0.649 -3.72,1.897" /></g><path
           id="path604"
           style="fill:#231f20;fill-opacity:1;fill-rule:nonzero;stroke:none"
           d="m 573.252,161.581 h 2.521 v -11.593 h -2.521 z m -0.312,2.977 c 0,0.864 0.72,1.559 1.56,1.559 0.864,0 1.561,-0.695 1.561,-1.559 0,-0.865 -0.697,-1.561 -1.561,-1.561 -0.84,0 -1.56,0.696 -1.56,1.561" /><g
           transform="translate(578.3164,155.7969)"
           id="g606"><path
             id="path608"
             style="fill:#231f20;fill-opacity:1;fill-rule:nonzero;stroke:none"
             d="m 0,0 c 0,3.504 2.473,6.072 6.001,6.072 2.256,0 3.624,-0.96 4.439,-2.064 L 8.785,2.472 C 8.137,3.384 7.249,3.84 6.12,3.84 4.009,3.84 2.616,2.256 2.616,0 c 0,-2.256 1.393,-3.864 3.504,-3.864 1.129,0 2.017,0.479 2.665,1.368 L 10.44,-4.032 C 9.625,-5.137 8.257,-6.097 6.001,-6.097 2.473,-6.097 0,-3.528 0,0" /></g><g
           transform="translate(596.1719,152.2441)"
           id="g610"><path
             id="path612"
             style="fill:#231f20;fill-opacity:1;fill-rule:nonzero;stroke:none"
             d="m 0,0 1.561,2.16 c 1.103,-1.176 2.832,-2.208 5.064,-2.208 2.304,0 3.216,1.128 3.216,2.185 0,3.36 -9.337,1.271 -9.337,7.176 0,2.64 2.328,4.68 5.833,4.68 2.496,0 4.512,-0.792 6,-2.231 L 10.729,9.673 c -1.248,1.248 -2.953,1.824 -4.632,1.824 -1.657,0 -2.712,-0.792 -2.712,-1.992 0,-2.976 9.312,-1.128 9.312,-7.105 0,-2.664 -1.872,-4.944 -6.192,-4.944 C 3.553,-2.544 1.416,-1.512 0,0" /></g><g
           transform="translate(611.5312,152.6768)"
           id="g614"><path
             id="path616"
             style="fill:#231f20;fill-opacity:1;fill-rule:nonzero;stroke:none"
             d="M 0,0 V 6.696 H -1.92 V 8.904 H 0 v 3.169 H 2.521 V 8.904 H 4.873 V 6.696 H 2.521 V 0.624 c 0,-0.792 0.383,-1.368 1.104,-1.368 0.479,0 0.936,0.191 1.128,0.408 l 0.6,-1.896 C 4.896,-2.664 4.152,-2.977 2.977,-2.977 1.032,-2.977 0,-1.921 0,0" /></g><g
           transform="translate(618.6826,149.9883)"
           id="g618"><path
             id="path620"
             style="fill:#231f20;fill-opacity:1;fill-rule:nonzero;stroke:none"
             d="M 0,0 V 11.593 H 2.521 V 9.889 c 0.864,1.104 2.255,1.968 3.768,1.968 V 9.36 C 6.073,9.409 5.809,9.433 5.497,9.433 4.44,9.433 3.024,8.713 2.521,7.896 V 0 Z" /></g><g
           transform="translate(632.1719,159.8047)"
           id="g622"><path
             id="path624"
             style="fill:#231f20;fill-opacity:1;fill-rule:nonzero;stroke:none"
             d="M 0,0 C -2.16,0 -3.145,-1.655 -3.265,-3.072 H 3.264 C 3.216,-1.704 2.28,0 0,0 m -5.881,-4.008 c 0,3.361 2.448,6.072 5.881,6.072 3.479,0 5.712,-2.664 5.712,-6.312 v -0.6 H -3.24 c 0.191,-1.753 1.511,-3.192 3.696,-3.192 1.128,0 2.472,0.456 3.288,1.271 l 1.152,-1.655 c -1.152,-1.104 -2.856,-1.68 -4.705,-1.68 -3.48,0 -6.072,2.423 -6.072,6.096" /></g><g
           transform="translate(645.54,159.8047)"
           id="g626"><path
             id="path628"
             style="fill:#231f20;fill-opacity:1;fill-rule:nonzero;stroke:none"
             d="M 0,0 C -2.16,0 -3.145,-1.655 -3.265,-3.072 H 3.264 C 3.216,-1.704 2.28,0 0,0 m -5.881,-4.008 c 0,3.361 2.448,6.072 5.881,6.072 3.479,0 5.712,-2.664 5.712,-6.312 v -0.6 H -3.24 c 0.191,-1.753 1.511,-3.192 3.696,-3.192 1.128,0 2.472,0.456 3.288,1.271 l 1.152,-1.655 c -1.152,-1.104 -2.856,-1.68 -4.705,-1.68 -3.48,0 -6.072,2.423 -6.072,6.096" /></g><g
           transform="translate(654.251,152.6768)"
           id="g630"><path
             id="path632"
             style="fill:#231f20;fill-opacity:1;fill-rule:nonzero;stroke:none"
             d="M 0,0 V 6.696 H -1.92 V 8.904 H 0 v 3.169 H 2.521 V 8.904 H 4.873 V 6.696 H 2.521 V 0.624 c 0,-0.792 0.383,-1.368 1.104,-1.368 0.479,0 0.936,0.191 1.128,0.408 l 0.6,-1.896 C 4.896,-2.664 4.152,-2.977 2.977,-2.977 1.032,-2.977 0,-1.921 0,0" /></g><g
           transform="translate(674.0029,163.165)"
           id="g634"><path
             id="path636"
             style="fill:#231f20;fill-opacity:1;fill-rule:nonzero;stroke:none"
             d="m 0,0 -2.88,-7.632 h 5.761 z m 4.849,-13.177 -1.176,3.073 h -7.345 l -1.177,-3.073 H -8.04 l 6.288,16.01 h 3.504 l 6.289,-16.01 z" /></g><g
           transform="translate(683.7217,149.9883)"
           id="g638"><path
             id="path640"
             style="fill:#231f20;fill-opacity:1;fill-rule:nonzero;stroke:none"
             d="M 0,0 V 11.593 H 2.521 V 9.889 c 0.864,1.104 2.255,1.968 3.768,1.968 V 9.36 C 6.073,9.409 5.809,9.433 5.497,9.433 4.44,9.433 3.024,8.713 2.521,7.896 V 0 Z" /></g><g
           transform="translate(692.5537,152.6768)"
           id="g642"><path
             id="path644"
             style="fill:#231f20;fill-opacity:1;fill-rule:nonzero;stroke:none"
             d="M 0,0 V 6.696 H -1.92 V 8.904 H 0 v 3.169 H 2.521 V 8.904 H 4.873 V 6.696 H 2.521 V 0.624 c 0,-0.792 0.383,-1.368 1.104,-1.368 0.479,0 0.936,0.191 1.128,0.408 l 0.6,-1.896 C 4.896,-2.664 4.152,-2.977 2.977,-2.977 1.032,-2.977 0,-1.921 0,0" /></g><g
           transform="translate(705.2256,157.9814)"
           id="g646"><path
             id="path648"
             style="fill:#231f20;fill-opacity:1;fill-rule:nonzero;stroke:none"
             d="m 0,0 c 0,4.92 3.672,8.28 8.4,8.28 3.241,0 5.233,-1.679 6.433,-3.6 l -2.4,-1.224 C 11.665,4.776 10.129,5.784 8.4,5.784 5.232,5.784 2.88,3.359 2.88,0 c 0,-3.36 2.352,-5.785 5.52,-5.785 1.729,0 3.265,0.984 4.033,2.328 l 2.4,-1.224 C 13.609,-6.601 11.641,-8.281 8.4,-8.281 3.672,-8.281 0,-4.921 0,0" /></g><g
           transform="translate(730.834,155.7969)"
           id="g650"><path
             id="path652"
             style="fill:#231f20;fill-opacity:1;fill-rule:nonzero;stroke:none"
             d="m 0,0 c 0,2.04 -1.2,3.84 -3.36,3.84 -2.136,0 -3.336,-1.8 -3.336,-3.84 0,-2.064 1.2,-3.864 3.336,-3.864 2.16,0 3.36,1.8 3.36,3.864 m -9.313,0 c 0,3.313 2.281,6.072 5.953,6.072 3.72,0 5.976,-2.759 5.976,-6.072 0,-3.336 -2.256,-6.097 -5.976,-6.097 -3.672,0 -5.953,2.761 -5.953,6.097" /></g><g
           transform="translate(735.9932,149.9883)"
           id="g654"><path
             id="path656"
             style="fill:#231f20;fill-opacity:1;fill-rule:nonzero;stroke:none"
             d="M 0,0 V 11.593 H 2.521 V 9.889 c 0.864,1.104 2.255,1.968 3.768,1.968 V 9.36 C 6.073,9.409 5.809,9.433 5.497,9.433 4.44,9.433 3.024,8.713 2.521,7.896 V 0 Z" /></g><g
           transform="translate(744.3213,149.9883)"
           id="g658"><path
             id="path660"
             style="fill:#231f20;fill-opacity:1;fill-rule:nonzero;stroke:none"
             d="M 0,0 V 11.593 H 2.521 V 9.889 c 0.864,1.104 2.255,1.968 3.768,1.968 V 9.36 C 6.073,9.409 5.809,9.433 5.497,9.433 4.44,9.433 3.024,8.713 2.521,7.896 V 0 Z" /></g><path
           id="path662"
           style="fill:#231f20;fill-opacity:1;fill-rule:nonzero;stroke:none"
           d="m 752.649,161.581 h 2.521 v -11.593 h -2.521 z m -0.311,2.977 c 0,0.864 0.72,1.559 1.559,1.559 0.865,0 1.561,-0.695 1.561,-1.559 0,-0.865 -0.696,-1.561 -1.561,-1.561 -0.839,0 -1.559,0.696 -1.559,1.561" /><g
           transform="translate(766.5947,153.4687)"
           id="g664"><path
             id="path666"
             style="fill:#231f20;fill-opacity:1;fill-rule:nonzero;stroke:none"
             d="m 0,0 v 4.608 c -0.576,0.865 -1.8,1.56 -3,1.56 -1.992,0 -3.265,-1.607 -3.265,-3.864 0,-2.232 1.273,-3.84 3.265,-3.84 1.2,0 2.424,0.672 3,1.536 m 0,-3.48 v 1.584 c -0.889,-1.153 -2.232,-1.873 -3.721,-1.873 -2.975,0 -5.16,2.256 -5.16,6.073 0,3.745 2.16,6.096 5.16,6.096 C -2.28,8.4 -0.937,7.729 0,6.504 v 6.025 H 2.521 V -3.48 Z" /></g><g
           transform="translate(780.9707,155.7969)"
           id="g668"><path
             id="path670"
             style="fill:#231f20;fill-opacity:1;fill-rule:nonzero;stroke:none"
             d="m 0,0 c 0,2.04 -1.2,3.84 -3.36,3.84 -2.136,0 -3.336,-1.8 -3.336,-3.84 0,-2.064 1.2,-3.864 3.336,-3.864 2.16,0 3.36,1.8 3.36,3.864 m -9.313,0 c 0,3.313 2.281,6.072 5.953,6.072 3.72,0 5.976,-2.759 5.976,-6.072 0,-3.336 -2.256,-6.097 -5.976,-6.097 -3.672,0 -5.953,2.761 -5.953,6.097" /></g><g
           transform="translate(786.1299,149.9883)"
           id="g672"><path
             id="path674"
             style="fill:#231f20;fill-opacity:1;fill-rule:nonzero;stroke:none"
             d="M 0,0 V 11.593 H 2.521 V 9.889 c 0.864,1.104 2.255,1.968 3.768,1.968 V 9.36 C 6.073,9.409 5.809,9.433 5.497,9.433 4.44,9.433 3.024,8.713 2.521,7.896 V 0 Z" /></g><g
           transform="translate(132.0781,153.5229)"
           id="g676"><path
             id="path678"
             style="fill:#231f20;fill-opacity:1;fill-rule:nonzero;stroke:none"
             d="m 0,0 c -1.967,0 -3.562,1.595 -3.562,3.562 0,1.967 1.595,3.562 3.562,3.562 1.967,0 3.562,-1.595 3.562,-3.562 C 3.562,1.595 1.967,0 0,0" /></g><g
           transform="translate(284.7451,153.5225)"
           id="g680"><path
             id="path682"
             style="fill:#231f20;fill-opacity:1;fill-rule:nonzero;stroke:none"
             d="m 0,0 c -1.967,0 -3.562,1.595 -3.562,3.562 0,1.967 1.595,3.562 3.562,3.562 1.967,0 3.562,-1.595 3.562,-3.562 C 3.562,1.595 1.967,0 0,0" /></g><g
           transform="translate(422.5781,153.5229)"
           id="g684"><path
             id="path686"
             style="fill:#231f20;fill-opacity:1;fill-rule:nonzero;stroke:none"
             d="m 0,0 c -1.967,0 -3.562,1.595 -3.562,3.562 0,1.967 1.595,3.562 3.562,3.562 1.967,0 3.563,-1.595 3.563,-3.562 C 3.563,1.595 1.967,0 0,0" /></g><g
           transform="translate(519.4121,153.5225)"
           id="g688"><path
             id="path690"
             style="fill:#231f20;fill-opacity:1;fill-rule:nonzero;stroke:none"
             d="m 0,0 c -1.967,0 -3.563,1.595 -3.563,3.562 0,1.967 1.596,3.562 3.563,3.562 1.967,0 3.562,-1.595 3.562,-3.562 C 3.562,1.595 1.967,0 0,0" /></g></g></g></g></svg>